<svg width="641" height="481" viewBox="0 0 641 481" fill="none" xmlns="http://www.w3.org/2000/svg">
<path d="M628.697 428.125L13.1945 428.125C6.9129 428.125 1.82068 423.033 1.82068 416.751L1.82068 378.875L640.071 378.875L640.071 416.751C640.071 423.033 634.979 428.125 628.697 428.125Z" fill="white" stroke="#D4DFEA" stroke-width="1.74981"/>
<path d="M0.945793 12.2487C0.945793 5.48391 6.4297 0 13.1944 0H628.697C635.462 0 640.946 5.48391 640.946 12.2486V380H0.945793V12.2487Z" fill="#011447"/>
<rect x="27.9458" y="28" width="108" height="326" fill="#064685"/>
<path fill-rule="evenodd" clip-rule="evenodd" d="M135.694 276.099H123.175C121.242 276.099 119.675 277.666 119.675 279.598V302.231C119.675 304.164 121.242 305.731 123.175 305.731H135.694V276.099Z" fill="white"/>
<rect width="7.80924" height="2.23121" rx="1.1156" transform="matrix(0.683759 -0.729708 0.683759 0.729708 124.252 290.915)" fill="#064685"/>
<rect width="7.80923" height="2.23121" rx="1.1156" transform="matrix(0.683759 0.729708 -0.683759 0.729708 125.778 289.287)" fill="#064685"/>
<path d="M63.9458 55.5273L55.9263 54C55.6079 55.6686 54.4746 57.0563 52.9458 57.7523L56.3274 65C60.2791 63.2317 63.1163 59.7039 63.9458 55.5273Z" fill="#76C349"/>
<path d="M57.9458 67.2399L53.158 58.1995C52.4086 58.5917 51.5537 58.8138 50.646 58.8138C47.6843 58.8138 45.2834 56.4481 45.2834 53.5298C45.2834 50.6114 47.6843 48.2457 50.646 48.2457H50.6693L50.6694 38C44.141 38 38.2917 41.9772 35.9723 47.9931C33.6528 54.0092 35.3459 60.8121 40.2262 65.087C45.1066 69.3614 52.1587 70.2185 57.9458 67.2399Z" fill="#0078D3"/>
<path d="M54.9458 49.7616C55.7105 50.7063 56.1695 51.9163 56.1695 53.235C56.1695 53.7449 56.1008 54.2384 55.9724 54.7067L67.2836 58C68.6229 53.2441 67.9055 48.1595 65.3599 44L54.9458 49.7616Z" fill="#D6E142"/>
<path d="M50.946 34L50.9458 48.0273C53.3425 48.038 55.3617 49.7132 55.9926 52L68.9458 48.1802C66.6664 39.7912 59.3153 34 50.946 34Z" fill="#12BDEF"/>
<rect x="78.9458" y="50" width="45" height="6" rx="3" fill="white"/>
<rect x="39.9458" y="89" width="54" height="6" rx="3" fill="#B5C8DB"/>
<rect x="39.9458" y="112" width="84" height="6" rx="3" fill="#B5C8DB"/>
<rect x="39.9458" y="135" width="43" height="6" rx="3" fill="white"/>
<rect x="135.946" y="28" width="478" height="38" fill="white"/>
<rect x="135.946" y="66" width="478" height="288" fill="#E7EFF5"/>
<rect x="158.946" y="50" width="84" height="6" rx="3" fill="#064685"/>
<rect x="157.946" y="89" width="67" height="6" rx="3" fill="#064685"/>
<rect x="533.946" y="85" width="57" height="16" rx="3.49961" fill="#064685"/>
<rect x="-0.874903" y="0.874903" width="133.25" height="128.25" rx="2.62471" transform="matrix(-1 0 0 1 291.196 114)" fill="#FCFDFE" stroke="#AEC4DB" stroke-width="1.74981"/>
<rect x="-0.874903" y="0.874903" width="133.25" height="68.2502" rx="2.62471" transform="matrix(-1 0 0 1 291.196 256)" fill="#FCFDFE" stroke="#AEC4DB" stroke-width="1.74981"/>
<rect x="-0.874903" y="0.874903" width="133.25" height="69.2502" rx="2.62471" transform="matrix(-1 0 0 1 589.196 210)" fill="#FCFDFE" stroke="#AEC4DB" stroke-width="1.74981"/>
<rect x="-0.874903" y="0.874903" width="137.25" height="108.25" rx="2.62471" transform="matrix(-1 0 0 1 442.196 114)" fill="#FCFDFE" stroke="#AEC4DB" stroke-width="1.74981"/>
<rect x="-0.874903" y="0.874903" width="137.25" height="96.2502" rx="2.62471" transform="matrix(-1 0 0 1 442.196 235)" fill="#FCFDFE" stroke="#AEC4DB" stroke-width="1.74981"/>
<rect x="-0.874903" y="0.874903" width="133.25" height="83.2502" rx="2.62471" transform="matrix(-1 0 0 1 589.196 114)" fill="#FCFDFE" stroke="#AEC4DB" stroke-width="1.74981"/>
<circle cx="319.946" cy="405" r="8" fill="#011447"/>
<rect x="505.946" y="50" width="85" height="6" rx="3" fill="#064685"/>
<path fill-rule="evenodd" clip-rule="evenodd" d="M363.046 430H275.846L265.806 465H265.279L237.946 467.667V481H401.946V467.667L374.612 465H373.085L363.046 430Z" fill="#011447"/>
<path d="M371.946 170.5V140C389.067 140 402.946 153.655 402.946 170.5C402.946 187.345 389.067 201 371.946 201C354.825 201 340.946 187.345 340.946 170.5C340.946 153.655 354.825 140 371.946 140V170.5Z" fill="#E6ECF3"/>
<path d="M371.93 170.442V140C385.375 140 396.732 147.943 401.151 160.436C405.57 172.93 401.678 186.094 391.138 194.306C380.599 202.519 366.683 203.229 355.336 196.134C343.989 189.04 338.734 176.342 341.814 163.466L371.93 170.442Z" fill="#B4C7DA"/>
<path d="M372.327 169.944V137C385.916 137 397.43 144.882 402.498 157.656C407.567 170.43 404.643 184.192 394.835 193.721C385.026 203.25 371.331 205.634 358.946 199.969L372.327 169.944Z" fill="#064685"/>
<path d="M383.946 169.5C383.946 163.149 378.573 158 371.946 158C365.318 158 359.946 163.149 359.946 169.5C359.946 175.851 365.318 181 371.946 181C378.573 181 383.946 175.851 383.946 169.5Z" fill="#FCFDFE"/>
<rect x="466.946" y="221" width="85" height="6" rx="3" fill="#064685"/>
<rect x="169.946" y="199" width="112" height="6" rx="3" fill="#B5C8DB"/>
<rect x="169.946" y="213" width="112" height="6" rx="3" fill="#B5C8DB"/>
<rect x="169.946" y="227" width="112" height="6" rx="3" fill="#B5C8DB"/>
<rect x="169.946" y="268" width="112" height="6" rx="3" fill="#B5C8DB"/>
<rect x="169.946" y="281" width="112" height="6" rx="3" fill="#B5C8DB"/>
<rect x="169.946" y="295" width="112" height="6" rx="3" fill="#B5C8DB"/>
<rect x="169.946" y="309" width="112" height="6" rx="3" fill="#B5C8DB"/>
<rect x="466.946" y="126" width="112" height="6" rx="3" fill="#B5C8DB"/>
<rect x="466.946" y="139" width="112" height="6" rx="3" fill="#B5C8DB"/>
<rect x="466.946" y="153" width="112" height="6" rx="3" fill="#B5C8DB"/>
<rect x="466.946" y="167" width="112" height="6" rx="3" fill="#B5C8DB"/>
<rect x="466.946" y="180" width="112" height="6" rx="3" fill="#B5C8DB"/>
<rect x="317.946" y="246" width="112" height="6" rx="3" fill="#B5C8DB"/>
<rect x="317.946" y="260" width="112" height="6" rx="3" fill="#B5C8DB"/>
<rect x="317.946" y="274" width="112" height="6" rx="3" fill="#B5C8DB"/>
<rect x="317.946" y="287" width="112" height="6" rx="3" fill="#B5C8DB"/>
<rect x="317.946" y="301" width="112" height="6" rx="3" fill="#B5C8DB"/>
<rect x="317.946" y="315" width="112" height="6" rx="3" fill="#B5C8DB"/>
<rect x="466.946" y="235" width="57" height="6" rx="3" fill="#064685"/>
<rect x="466.946" y="249" width="23" height="6" rx="3" fill="#064685"/>
<rect x="466.946" y="262" width="14" height="6" rx="3" fill="#064685"/>
<path d="M288.003 178.365C288.038 178.393 288.003 178.506 288.038 178.562C288.107 178.702 288.038 179.039 288.352 179.152C288.457 179.208 288.736 179.18 288.911 179.292C288.946 179.32 288.946 179.32 288.946 179.376C288.946 179.573 288.072 179.994 288.003 180.051C287.513 180.388 286.85 180.921 286.291 180.978C286.151 181.006 285.976 181.006 285.872 181.062C285.417 181.287 285.033 181.596 284.614 181.876C284.439 181.961 284.125 182.045 283.915 182.101C283.741 182.129 283.566 182.185 283.426 182.27C283.182 182.354 283.007 182.522 282.797 182.635C282.588 182.775 282.343 182.803 282.169 182.888C281.959 182.972 281.924 183 281.819 183C281.749 183 281.644 182.944 281.575 182.944C281.505 182.916 280.946 182.944 280.946 182.775C280.946 182.494 282.588 181.792 283.042 181.68C283.147 181.652 283.321 181.624 283.461 181.596C283.775 181.511 284.299 181.118 284.614 180.893C284.649 180.837 284.789 180.865 284.858 180.837C285.033 180.781 285.173 180.528 285.417 180.472C285.522 180.416 285.697 180.472 285.837 180.416C286.011 180.36 286.186 180.275 286.326 180.163C286.361 180.107 286.361 179.994 286.431 179.966C286.535 179.854 286.745 179.826 286.92 179.713C287.059 179.573 287.199 179.376 287.304 179.208C287.339 179.096 287.374 178.927 287.374 178.843C287.374 178.787 287.304 178.393 287.304 178.337C287.304 178.253 287.374 178 287.548 178C287.618 178 287.863 178.225 288.003 178.365Z" fill="#E7EFF5"/>
<path d="M239.946 168.618C239.946 169.04 239.766 168.97 239.586 169.638C239.556 169.744 239.586 169.955 239.526 170.131C239.196 171.256 238.836 172.417 238.446 173.578C238.446 173.613 238.386 173.683 238.326 173.719C238.146 173.824 237.816 174 237.756 174C237.666 174 237.576 173.93 237.486 173.859C237.396 173.789 237.246 173.754 237.156 173.613C237.096 173.508 236.946 172.874 236.946 172.839V171.925C237.036 171.749 237.396 171.116 237.396 170.834C237.396 170.764 237.306 169.99 237.306 169.884C237.306 169.638 237.516 169.111 237.606 169.075C237.936 168.864 238.566 168.794 238.806 168.196C238.866 168.09 238.896 167.915 238.956 167.809C238.956 167.774 239.316 167 239.496 167C239.766 167 239.946 168.513 239.946 168.618Z" fill="#E7EFF5"/>
<path d="M274.478 167.192C274.756 167.256 275.097 167.256 275.406 167.32C275.437 167.32 275.623 167.544 275.623 167.608C275.623 167.704 275.22 168.569 275.22 168.665C275.22 168.729 275.282 168.985 275.375 169.081C275.654 169.337 275.994 169.498 276.366 169.722C276.427 169.786 276.582 169.818 276.706 169.818C276.83 169.594 276.799 169.337 276.923 169.145C277.077 168.825 277.139 168.537 277.201 168.249C277.263 168.089 277.356 167.897 277.356 167.736C277.418 167.544 277.542 167 277.758 167C277.851 167 277.975 167 278.006 167.096C278.191 167.448 278.284 167.897 278.439 168.313C278.501 168.473 278.656 168.601 278.748 168.793C278.779 168.825 278.748 168.953 278.748 169.049C278.748 169.177 278.81 169.273 278.841 169.434C278.903 169.754 278.81 170.17 278.903 170.554C278.934 170.65 279.12 170.682 279.213 170.746C279.337 170.874 279.522 171.034 279.615 171.227C279.646 171.227 279.615 171.323 279.646 171.387C279.646 171.419 279.739 171.451 279.77 171.547C279.955 171.899 280.11 172.347 280.358 172.732C280.791 173.436 280.946 173.308 280.946 173.788C280.946 174.204 280.791 174.429 280.636 174.877C280.482 175.293 280.234 175.709 280.017 176.094C279.955 176.158 279.986 176.318 279.894 176.446C279.801 176.574 279.646 176.638 279.553 176.766C279.213 177.15 278.779 177.406 278.408 177.887C278.346 177.951 278.315 178.111 278.222 178.239C278.16 178.335 278.006 178.399 277.944 178.527C277.727 178.783 277.603 179.135 277.325 179.36C277.17 179.488 276.954 179.616 276.768 179.68C276.582 179.744 276.366 179.744 276.211 179.808C276.056 179.84 275.808 180 275.747 180C275.654 180 274.942 179.968 274.601 179.872C274.385 179.84 274.23 179.744 274.044 179.68C273.952 179.648 273.673 179.616 273.642 179.424C273.58 179.135 273.673 178.687 273.364 178.431C273.333 178.399 273.24 178.399 273.209 178.367C272.961 178.207 272.559 178.175 272.466 177.887C272.404 177.727 272.466 177.534 272.435 177.374C272.435 177.342 272.404 177.31 272.373 177.278C272.342 177.214 272.342 177.086 272.311 177.054C272.219 176.926 272.033 176.894 271.94 176.83C271.816 176.798 271.723 176.702 271.6 176.606C271.538 176.574 271.414 176.574 271.352 176.574C270.64 176.574 270.238 176.83 269.433 176.958C269.155 176.99 268.876 177.15 268.66 177.278C268.474 177.342 268.164 177.695 268.072 177.695H267.298C266.988 177.791 266.617 177.887 266.338 177.983C266.215 178.015 266.091 178.143 266.029 178.175C265.905 178.239 265.719 178.303 265.658 178.303C265.441 178.303 264.946 177.983 264.946 177.695C264.946 177.631 264.946 177.534 264.977 177.502C265.039 177.406 265.162 177.342 265.224 177.278C265.348 177.054 265.565 176.67 265.565 176.574C265.565 176.51 265.472 176.286 265.472 176.222V174.973C265.441 174.973 265.41 174.909 265.379 174.877C265.348 174.589 265.224 174.012 265.224 173.948C265.224 173.756 265.441 173.308 265.472 173.116C265.565 172.86 265.874 172.603 265.781 172.347C265.781 172.315 265.781 172.251 265.781 172.187C265.905 171.963 266.308 171.835 266.524 171.707C266.586 171.675 266.648 171.547 266.741 171.515C266.926 171.387 267.205 171.355 267.422 171.259C267.514 171.227 267.576 171.131 267.7 171.099C267.917 171.002 268.195 170.938 268.443 170.906C268.721 170.874 268.969 170.554 269.186 170.266C269.278 170.106 269.309 169.882 269.433 169.722C269.495 169.626 269.65 169.53 269.743 169.401C269.774 169.401 269.805 169.401 269.836 169.369C270.083 169.145 270.485 168.665 270.764 168.569C270.888 168.537 271.012 168.377 271.166 168.281C271.197 168.249 271.321 168.281 271.383 168.249C271.445 168.217 271.507 168.153 271.6 168.153C271.661 168.153 272.064 168.473 272.311 168.569C272.342 168.473 273.395 167 273.797 167C273.89 167 274.261 167.16 274.478 167.192Z" fill="#AEC4DB"/>
<path d="M275.458 162.362C275.489 162.428 275.584 163.02 275.804 163.02C275.899 163.02 276.717 162.461 276.812 162.461C276.875 162.461 277.095 162.593 277.284 162.626C277.473 162.691 277.694 162.79 277.946 162.889C278.009 162.922 278.166 162.922 278.261 162.954C278.576 163.086 278.922 163.25 279.237 163.349C279.3 163.349 279.363 163.514 279.458 163.547C279.804 163.777 280.056 164.171 280.434 164.5C280.465 164.566 280.591 164.566 280.686 164.599C280.78 164.665 280.875 164.763 280.906 164.895C280.969 164.994 280.938 165.191 280.906 165.355C280.875 165.52 280.938 165.783 281.127 165.98C281.19 166.013 281.253 165.98 281.316 166.013C281.41 166.046 281.946 166.704 281.946 166.836C281.946 166.967 281.694 167 281.662 167C281.505 167 281.442 166.836 281.253 166.77C281.095 166.704 280.875 166.77 280.717 166.737C280.182 166.638 280.151 165.816 279.678 165.651C279.584 165.651 279.521 165.553 279.458 165.553C279.3 165.553 279.174 165.651 279.048 165.882C279.017 165.915 279.017 166.046 278.922 166.145C278.828 166.244 278.639 166.342 278.576 166.342C278.481 166.342 278.198 166.342 278.072 166.276C277.977 166.276 277.914 166.112 277.851 166.079C277.694 165.948 277.473 165.849 277.379 165.849C277.316 165.849 276.938 165.948 276.875 165.948C276.749 165.948 276.654 165.915 276.654 165.783C276.654 165.684 276.875 164.961 276.875 164.895C276.875 164.796 276.717 164.467 276.56 164.336C276.34 164.171 275.962 164.139 275.741 164.007C275.489 163.908 275.395 163.81 275.237 163.81C275.143 163.81 274.985 163.941 274.922 163.941C274.828 163.941 274.765 163.875 274.733 163.81C274.639 163.612 274.45 163.283 274.45 163.185C274.45 163.119 274.513 163.119 274.513 163.053C274.513 162.626 274.166 162.626 273.946 162.428V162.198C273.946 162.264 274.072 162.231 274.135 162.198C274.229 162.198 274.292 162.132 274.418 162.066C274.513 162.001 274.733 162.001 274.796 162.001C275.174 162.001 274.985 161.968 275.458 162.362Z" fill="#E7EFF5"/>
<path d="M270.946 161.134C270.946 161.536 270.565 161.589 270.493 162.045C270.493 162.125 270.255 162.232 270.232 162.286C270.065 162.42 270.112 162.5 270.112 162.634C270.112 162.687 270.327 163.625 270.327 163.679C270.327 163.839 270.232 163.92 270.16 163.92C270.112 163.92 270.089 163.893 270.065 163.866C270.041 163.839 269.993 163.759 269.946 163.732C269.851 163.705 269.708 163.679 269.66 163.679C269.374 163.679 269.517 164 269.255 164C269.112 164 269.112 163.946 269.112 163.839C269.112 163.759 269.16 163.491 269.16 163.438C269.16 163.062 268.946 163.304 268.946 162.902C268.946 162.634 269.017 162.741 269.089 162.42C269.089 162.286 269.16 162.152 269.184 162.018C269.184 161.964 269.16 161.857 269.16 161.804C269.16 161.723 269.208 161.589 269.279 161.509C269.327 161.402 269.446 161.348 269.517 161.295C269.612 161.187 269.636 161.161 269.708 161.161C269.708 161.161 270.303 161.321 270.47 161.321C270.612 161.321 270.636 161 270.827 161C270.922 161 270.946 161.08 270.946 161.134Z" fill="#E7EFF5"/>
<path d="M259.927 159.2C260.019 159.267 260.08 159.467 260.172 159.567C260.448 159.833 260.785 160.067 261.061 160.4C261.612 161.067 262.379 161.333 262.685 162.133C262.777 162.3 262.808 162.567 262.9 162.767C262.93 162.8 263.053 162.8 263.114 162.933C263.176 163.033 263.268 163.233 263.268 163.3C263.268 163.4 263.237 163.367 263.206 163.4V164C263.268 164.167 263.421 164.633 263.697 164.667C264.402 164.8 264.157 164.933 264.616 164.933C264.708 164.933 264.923 164.8 264.984 164.8C265.076 164.8 265.383 164.867 265.628 164.933C265.75 164.967 265.965 164.9 266.149 164.967C266.302 165.033 266.363 165.267 266.547 165.4C266.578 165.467 266.701 165.467 266.762 165.5C266.915 165.6 266.946 165.633 266.946 165.767C266.946 165.833 266.915 165.9 266.854 165.933C266.731 165.933 266.517 166 266.425 166C266.363 166 266.21 165.9 266.088 165.9C265.781 165.867 265.413 165.967 265.107 165.867C264.862 165.833 264.647 165.6 264.432 165.567C264.248 165.533 264.003 165.567 263.85 165.5C263.727 165.467 263.574 165.433 263.421 165.333C263.39 165.333 263.329 165.267 263.298 165.233C263.022 165.2 262.777 164.967 262.624 164.8C262.501 164.633 262.409 164.4 262.287 164.267C262.225 164.167 262.072 164.033 261.98 163.933C261.858 163.867 261.796 163.7 261.704 163.6C261.551 163.333 261.337 163.167 261.183 162.933C261.061 162.767 261.03 162.533 260.938 162.367C260.846 162.167 260.724 162 260.632 161.867C260.54 161.7 260.448 161.567 260.356 161.4C260.264 161.2 260.233 160.967 260.111 160.8C260.049 160.733 259.927 160.733 259.865 160.633C259.835 160.533 259.804 160.367 259.743 160.3C259.498 160 258.946 159.467 258.946 159.4V159H259.068C259.344 159 259.743 159.067 259.927 159.2Z" fill="#E7EFF5"/>
<path d="M268.379 158.47C268.498 158.578 268.707 158.687 268.856 158.795C268.886 158.795 268.946 158.867 268.946 158.976C268.946 159.048 268.886 159.084 268.856 159.12C268.558 159.699 268.468 159.554 268.468 159.952C268.468 160.06 268.617 160.675 268.707 161.036C268.737 161.108 268.826 161.145 268.826 161.217C268.826 161.325 268.558 161.506 268.438 161.723C268.349 161.831 268.349 162.012 268.289 162.157C268.229 162.301 267.871 162.446 267.871 162.626C267.871 162.735 267.931 162.879 267.931 162.952C267.931 163.06 267.841 163.458 267.782 163.711C267.722 163.747 267.244 164 267.185 164C267.095 164 266.677 163.675 266.438 163.639C266.319 163.602 266.14 163.711 266.02 163.639C265.961 163.639 265.901 163.494 265.811 163.458C265.722 163.422 265.603 163.458 265.543 163.422C265.453 163.386 265.394 163.313 265.394 163.241C265.334 163.06 265.274 162.771 265.125 162.518C265.065 162.373 265.006 162.229 265.006 162.084C264.976 161.831 264.946 161.361 264.946 161.289C264.946 161.181 264.946 161.181 264.946 161.108C265.006 160.964 265.095 160.747 265.214 160.602C265.274 160.53 265.423 160.53 265.513 160.458C265.841 160.205 266.2 160.024 266.558 159.699C266.617 159.627 266.677 159.446 266.797 159.337C266.916 159.157 267.125 159.048 267.274 158.904C267.543 158.651 267.662 158.325 267.841 158.072C267.871 158.036 267.871 158 267.961 158C268.08 158 268.349 158.434 268.379 158.47Z" fill="#E7EFF5"/>
<path d="M190.822 156.095C190.885 156.127 190.98 156.222 191.043 156.253C191.075 156.317 191.201 156.285 191.296 156.348C191.454 156.443 191.58 156.602 191.77 156.665C191.896 156.728 192.086 156.665 192.244 156.728C192.402 156.76 192.686 156.95 192.781 156.95C192.844 156.95 193.034 156.76 193.192 156.728C193.381 156.665 193.666 156.728 193.918 156.665C193.982 156.665 194.013 156.633 194.108 156.633C194.171 156.633 194.424 156.728 194.55 156.792C194.582 156.823 194.582 156.855 194.582 156.918C194.582 157.013 194.487 157.267 194.487 157.33C194.487 157.457 194.614 157.71 194.74 157.742C194.803 157.773 194.961 157.805 195.056 157.868C195.435 158.185 195.403 158.565 195.909 158.818C195.972 158.881 196.099 158.913 196.193 158.913H196.825C196.952 158.945 197.015 158.976 197.141 159.008C197.236 159.04 197.426 159.071 197.584 159.135C197.678 159.198 197.742 159.356 197.836 159.451C197.9 159.515 198.058 159.546 198.152 159.641C198.279 159.8 198.342 160.116 198.405 160.37C198.437 160.56 198.626 160.75 198.721 160.971C198.784 161.066 198.784 161.256 198.848 161.383C198.879 161.446 198.942 161.541 199.069 161.605C199.606 161.89 200.206 162.08 200.775 162.333C200.996 162.428 201.912 162.998 202.292 162.998C202.355 162.998 202.544 162.935 202.639 162.935C203.145 162.935 203.619 163.695 204.029 163.853C204.187 163.948 204.409 163.885 204.598 164.011C204.883 164.233 204.946 164.676 204.946 164.993C204.946 165.626 204.725 166.196 204.061 166.829C203.998 166.893 203.966 167.051 203.903 167.178C203.84 167.304 203.682 167.463 203.587 167.621C203.461 167.811 203.366 168.001 203.366 168.159C203.366 168.254 203.366 168.539 203.398 168.729C203.429 168.856 203.524 169.014 203.524 169.078C203.524 169.173 203.461 169.648 203.398 169.901C203.398 169.996 203.271 170.059 203.24 170.186C203.208 170.313 203.271 170.503 203.24 170.661C203.176 170.914 202.987 171.104 202.86 171.421C202.797 171.516 202.892 171.706 202.829 171.864C202.797 171.959 202.608 172.022 202.544 172.117C202.513 172.149 202.481 172.307 202.418 172.307C202.134 172.371 201.818 172.402 201.565 172.434C201.407 172.434 201.281 172.624 201.123 172.687C200.996 172.751 200.838 172.751 200.743 172.814C200.333 172.972 200.017 173.289 200.017 173.637C200.017 173.732 200.143 174.461 200.143 174.556C200.143 174.619 200.111 174.841 200.048 174.967C199.985 175.031 199.827 175.126 199.764 175.284C199.669 175.411 199.669 175.601 199.574 175.759C199.511 175.854 199.322 175.917 199.258 176.076C199.069 176.456 198.911 176.931 198.69 177.374C198.563 177.596 198.152 177.849 198.058 178.039C197.805 178.419 197.742 178.894 197.552 179.305C197.52 179.369 197.394 179.4 197.362 179.432C197.173 179.527 196.92 179.654 196.731 179.717C196.351 179.812 196.383 180.192 196.288 180.414C196.225 180.572 196.067 180.699 196.004 180.889C195.941 180.984 195.941 181.174 195.909 181.3C195.846 181.49 195.625 181.775 195.625 181.87C195.625 181.934 195.688 182.029 195.688 182.092C195.688 182.219 195.435 182.504 195.435 182.725C195.435 182.915 195.435 182.915 195.656 183.2C195.846 183.232 196.035 183.485 196.035 183.644C196.035 183.802 195.751 183.897 195.656 184.118C195.593 184.182 195.625 184.34 195.593 184.467C195.593 184.53 195.498 184.562 195.467 184.657C195.435 184.72 195.435 184.847 195.435 184.91C195.435 185.037 195.877 185.448 195.909 185.512C196.004 185.607 196.004 185.797 196.099 185.923C196.193 186.05 196.383 186.177 196.573 186.272C196.667 186.367 196.825 186.43 196.983 186.462C197.078 186.493 197.236 186.493 197.362 186.525C197.457 186.557 197.552 186.683 197.552 186.778C197.552 186.842 197.52 186.937 197.457 187H196.825C196.604 186.937 196.351 186.842 196.13 186.81C195.972 186.778 195.846 186.81 195.814 186.747C195.751 186.652 195.783 186.525 195.719 186.462C195.719 186.43 195.277 186.113 195.151 186.113C195.087 186.113 194.866 186.24 194.772 186.24C194.392 186.24 193.824 185.543 193.666 185.227C193.666 185.195 193.666 185.132 193.634 185.1C193.444 184.783 193.255 184.467 193.097 184.15C192.939 183.802 193.002 183.39 192.749 182.947C192.56 182.63 192.623 182.187 192.497 181.87C192.339 181.49 192.086 181.142 191.865 180.794C191.77 180.635 191.77 180.445 191.707 180.255C191.643 180.002 191.643 179.685 191.58 179.464C191.517 179.242 191.327 178.925 191.327 178.83C191.327 178.767 191.549 177.406 191.549 177.311C191.549 176.551 191.138 175.727 191.138 174.967C191.138 174.872 191.233 174.366 191.233 174.302C191.233 174.207 191.169 173.922 191.138 173.732L191.043 170.946C190.98 170.756 190.98 170.503 190.885 170.313C190.569 169.584 189.526 169.268 188.989 168.951C188.705 168.793 188.484 168.444 188.262 168.191C188.199 168.096 188.231 167.938 188.168 167.843C188.104 167.621 187.947 167.399 187.82 167.209C187.631 166.893 187.315 166.449 187.062 166.164C186.935 166.038 186.935 165.784 186.872 165.658C186.777 165.246 186.303 164.961 186.082 164.645C185.893 164.36 185.956 164.17 185.956 163.98C185.956 163.378 186.303 163.536 186.303 163.125C186.303 163.03 186.114 162.745 186.114 162.681V162.016C186.177 161.826 186.24 161.573 186.398 161.383C186.461 161.256 186.619 161.193 186.683 161.098C186.809 160.94 187.125 160.591 187.283 160.433C187.536 160.148 187.536 159.8 187.631 159.515V158.85C187.504 158.597 187.22 158.28 187.315 158.027C187.251 157.995 187.188 157.995 187.093 157.995V157.583C187.157 157.425 187.346 157.488 187.346 157.488C187.441 157.488 187.662 157.552 187.725 157.552C187.978 157.552 188.168 157.362 188.294 157.203C188.357 157.108 188.326 156.95 188.42 156.855C188.547 156.665 188.8 156.507 189.052 156.412C189.116 156.38 189.242 156.412 189.337 156.38C189.495 156.348 189.653 156.253 189.811 156.158C189.874 156.127 189.874 156.063 189.937 156C190.222 156 190.537 156 190.822 156.095Z" fill="#AEC4DB"/>
<path d="M269.109 153C269.601 153.105 269.602 153.453 269.602 153.628C269.602 154.291 269.244 154.116 269.244 154.605C269.244 154.744 269.288 155.128 269.512 155.128C269.646 155.128 269.691 155.058 269.825 155.058C270.049 155.058 270.855 155.337 270.855 155.372C270.944 155.442 270.944 155.581 270.944 155.686C270.944 155.895 270.989 156 270.631 156C270.183 156 270.049 155.756 269.557 155.581C269.333 155.512 268.93 155.512 268.707 155.372C268.662 155.372 267.946 154.814 267.946 154.64V153.698C268.035 153.488 267.946 153.209 268.259 153H269.109Z" fill="#E7EFF5"/>
<path d="M190.309 153.066C190.426 153.066 190.504 153.003 190.582 153.003C190.777 153.003 190.816 153.097 191.128 153.19C191.206 153.221 191.946 153.408 191.946 153.595C191.946 153.689 191.868 153.751 191.79 153.782C191.517 153.844 191.206 153.844 190.933 153.875C190.816 153.875 190.738 153.969 190.66 153.969C190.582 154 190.504 154 190.387 154C190.309 154 189.491 153.907 189.063 153.813C189.024 153.813 188.946 153.782 188.946 153.72C188.946 153.471 189.686 153.533 189.725 153.533C189.725 153.533 189.764 153.533 189.764 153.471C189.764 153.346 189.491 153.221 189.491 153.097C189.491 152.972 189.686 153.003 189.764 153.003C189.881 153.003 190.232 153.066 190.309 153.066Z" fill="#E7EFF5"/>
<path d="M188.809 152C189.075 152.214 189.946 152.393 189.946 152.714C189.946 152.964 189.491 153 189.453 153C189.188 153 188.999 152.786 188.885 152.786C188.772 152.786 188.544 152.893 188.469 152.893C188.355 152.893 188.279 152.821 188.241 152.75C188.203 152.679 188.279 152.571 188.166 152.464C188.014 152.321 187.787 152.214 187.635 152.107C187.484 152.036 187.408 151.857 187.294 151.821C186.915 151.643 186.158 151.571 186.082 151.571C185.969 151.571 185.362 151.786 184.946 151.893V151.643C185.173 151.143 186.082 151 186.461 151C187.219 151 188.09 151.429 188.809 152Z" fill="#E7EFF5"/>
<path d="M223.836 144C223.869 144.065 223.936 144.097 224.002 144.162V144.973C223.936 145.136 223.803 145.298 223.803 145.395C223.803 145.752 224.398 146.109 224.662 146.109C224.728 146.109 224.893 146.044 224.959 146.044C225.059 146.044 225.422 146.076 225.62 146.206C225.785 146.303 225.752 146.595 225.917 146.693C226.049 146.79 226.281 146.725 226.446 146.79C226.677 146.855 227.106 147.179 227.206 147.179C227.371 147.179 227.536 147.082 227.536 146.92C227.536 146.855 227.404 146.693 227.404 146.628C227.404 146.563 227.734 146.141 227.833 146.141C227.998 146.109 228.262 146.044 228.362 146.044C228.428 146.044 228.692 146.076 228.857 146.174C228.89 146.174 228.923 146.271 228.989 146.303C229.022 146.368 229.154 146.336 229.253 146.368C229.418 146.433 229.551 146.563 229.749 146.595C230.046 146.693 230.442 146.693 230.806 146.79C230.971 146.823 231.202 146.952 231.268 146.952C231.367 146.952 231.896 146.628 231.995 146.628C232.292 146.628 232.854 146.952 233.052 147.374C233.217 147.698 233.25 148.088 233.316 148.445C233.349 148.542 233.25 148.704 233.316 148.834C233.415 149.094 233.646 149.353 233.745 149.613C233.877 149.84 233.944 150.164 234.109 150.424C234.241 150.618 234.472 150.781 234.637 151.073C234.901 151.462 234.835 152.013 235.034 152.435C235.166 152.727 235.463 152.922 235.595 153.181C235.694 153.376 235.76 153.733 235.826 153.992C235.859 154.122 235.958 154.317 236.09 154.382C236.256 154.511 236.553 154.511 236.718 154.641C236.883 154.803 237.048 155.128 237.28 155.355C237.742 155.809 237.643 155.712 237.643 156.036C237.643 156.393 238.204 156.523 238.303 156.523C238.403 156.523 238.436 156.458 238.535 156.426C238.568 156.393 238.667 156.426 238.733 156.426C238.931 156.393 239.096 156.296 239.327 156.231C239.691 156.101 240.153 156.069 240.549 155.939C240.582 155.939 240.582 155.874 240.682 155.874C240.748 155.874 240.847 155.939 240.946 156.004C240.913 156.588 240.946 156.62 240.946 156.653C240.913 156.815 240.88 157.01 240.814 157.204C240.649 157.626 240.417 158.015 240.219 158.469C239.856 159.183 239.459 160.189 238.568 160.708C238.469 160.773 238.303 160.805 238.204 160.903C237.742 161.357 237.313 162.006 236.916 162.46C236.817 162.59 236.586 162.655 236.487 162.849C236.322 163.109 236.223 163.433 236.09 163.725C236.024 163.855 235.892 164.082 235.892 164.244C235.892 164.342 235.958 164.439 235.958 164.536C235.991 164.698 236.024 164.828 236.057 165.023C236.09 165.185 236.057 165.542 236.057 165.607C236.057 166.061 236.553 166.45 236.553 167.034C236.553 167.132 236.487 167.359 236.454 167.553C236.355 168.105 236.619 168.657 236.223 169.176C235.859 169.63 235.298 169.824 234.901 170.084C234.703 170.181 234.67 170.441 234.538 170.538C234.175 170.798 234.043 171.025 234.043 171.349C234.043 171.414 234.208 172.095 234.208 172.193C234.208 172.258 234.175 172.517 234.142 172.679C234.109 172.842 234.043 173.036 233.944 173.198C233.745 173.458 233.217 173.62 233.085 173.977C232.953 174.302 232.92 174.723 232.721 175.08C232.589 175.307 232.259 175.437 232.16 175.664C231.83 176.313 231.136 177.124 230.475 177.448C230.376 177.481 230.244 177.448 230.178 177.513C229.716 177.74 229.286 177.708 228.857 177.773C228.626 177.773 228.428 177.935 228.229 177.968C227.701 178 227.602 178 227.503 178C227.305 178 226.875 177.773 226.842 177.708C226.743 177.546 226.71 177.351 226.644 177.189C226.611 177.092 226.677 176.994 226.677 176.897C226.743 176.637 226.512 176.248 226.446 175.989C226.38 175.729 226.38 175.437 226.215 175.21C226.149 175.113 225.983 175.048 225.884 174.918C225.686 174.691 225.587 174.464 225.521 174.237C225.455 173.977 225.488 173.653 225.422 173.393C225.389 173.166 225.29 173.004 225.323 172.809C225.356 172.582 225.356 172.323 225.29 172.128C225.224 171.901 224.993 171.739 224.893 171.544C224.728 171.252 224.629 170.895 224.497 170.635C224.266 170.084 224.167 170.246 224.167 169.857C224.167 169.792 224.2 169.532 224.2 169.37C224.299 168.948 224.464 168.494 224.53 168.073C224.563 168.04 224.563 167.975 224.563 167.91C224.662 167.651 225.059 167.326 225.092 167.099C225.092 167.034 225.092 167.002 225.092 166.905C225.092 166.84 225.059 166.645 225.059 166.58C225.059 166.483 224.827 166.191 224.794 165.996C224.728 165.704 224.761 165.347 224.695 165.088C224.662 164.893 224.53 164.731 224.431 164.536C224.332 164.309 224.365 164.017 224.233 163.79C223.903 163.206 223.308 162.784 223.11 162.265C223.11 162.2 223.011 162.135 223.011 162.071C223.011 161.811 223.308 161.422 223.242 161.162C223.275 160.513 223.407 160.676 223.407 160.254C223.407 160.156 223.374 159.994 223.308 159.897C223.242 159.767 222.78 159.573 222.581 159.573C222.482 159.573 222.02 159.637 221.954 159.637C221.293 159.637 221.822 158.664 220.732 158.664C220.666 158.664 220.137 158.664 219.906 158.761C219.807 158.794 219.741 158.891 219.708 158.891C219.278 159.021 218.486 159.41 218.387 159.41C218.321 159.41 217.528 159.183 217.462 159.183C217.231 159.183 216.075 159.605 216.008 159.605C215.744 159.605 215.117 158.956 215.051 158.924C214.522 158.697 213.762 158.048 213.63 157.529C213.531 157.139 213.201 156.782 213.003 156.555C212.871 156.361 212.573 156.198 212.408 156.069C212.309 155.971 211.946 155.225 211.946 155.128V154.447C212.045 154.252 212.21 154.057 212.375 153.863C212.408 153.83 212.408 153.765 212.408 153.7C212.474 153.441 212.573 153.019 212.573 152.922C212.573 152.857 212.21 151.819 212.21 151.754C212.21 151.656 212.243 151.527 212.243 151.429C212.243 151.267 212.342 151.105 212.441 150.975C212.54 150.845 212.54 150.651 212.606 150.553C212.739 150.326 212.937 150.132 213.036 149.937C213.168 149.742 213.201 149.483 213.3 149.288C213.366 149.158 213.531 149.094 213.63 149.029C213.729 148.899 213.795 148.672 213.928 148.51C214.06 148.282 214.291 148.347 214.423 148.25C214.786 147.926 215.216 147.439 215.282 147.179C215.381 146.887 215.447 146.693 215.612 146.433C215.645 146.401 215.645 146.336 215.645 146.271C215.843 146.109 216.008 145.914 216.207 145.784C216.339 145.687 216.603 145.59 216.702 145.46C216.834 145.265 216.966 144.779 217.297 144.779C217.561 144.779 217.363 144.876 217.693 144.941C218.321 144.908 218.354 144.908 218.387 144.941C218.717 144.844 219.047 144.779 219.377 144.649C219.444 144.616 219.477 144.487 219.609 144.422C219.675 144.357 219.774 144.324 219.906 144.292C220.005 144.26 220.203 144.324 220.368 144.292C220.699 144.26 221.26 144.13 221.326 144.13C221.425 144.13 221.69 144.227 221.756 144.227C221.855 144.227 221.921 144.13 222.053 144.097C222.119 144.065 222.317 144.097 222.416 144.097H223.044C223.143 144.065 223.242 144 223.308 144H223.836Z" fill="#B5C8DB"/>
<path d="M272.837 141.201C272.963 141.258 273.139 141.373 273.29 141.402C273.366 141.431 273.517 141.431 273.643 141.431C273.744 141.603 273.946 141.861 273.946 141.947C273.946 142.177 273.618 142.321 273.467 142.493C273.442 142.522 273.416 142.522 273.391 142.522C273.341 142.579 273.341 142.636 273.341 142.722C273.341 143.067 273.568 143.153 273.668 143.641C273.694 143.756 273.82 143.871 273.845 144.014C273.921 144.33 273.946 144.962 273.946 145.019C273.946 145.22 273.946 145.364 273.618 145.45C273.416 145.478 273.215 145.536 273.089 145.651C272.963 145.737 272.963 145.966 272.837 146.053C272.61 146.196 272.358 146.167 272.105 146.225C271.979 146.254 271.803 146.455 271.778 146.598C271.778 146.627 271.778 146.684 271.753 146.742C271.727 146.828 271.601 147 271.526 147C271.45 147 271.021 146.455 270.996 146.397C270.946 146.311 270.946 146.196 270.946 146.11C270.946 145.766 271.274 145.105 271.626 144.99C271.727 144.933 271.904 144.99 272.055 144.933C272.181 144.904 272.332 144.589 272.458 144.445C272.559 144.273 272.786 144.158 272.963 143.986C272.988 143.957 273.013 143.871 273.013 143.785C273.013 143.297 272.736 142.923 272.509 142.435C272.484 142.349 272.358 142.292 272.307 142.234C272.257 142.177 272.232 142.062 272.232 142.005C272.232 141.919 272.332 141.632 272.332 141.574C272.332 141.488 272.206 141.258 272.206 141.172C272.206 141 272.257 141 272.358 141C272.458 141 272.786 141.201 272.837 141.201Z" fill="#E7EFF5"/>
<path d="M217.946 136.437C217.946 136.546 217.704 136.655 217.635 136.8C217.67 137.018 217.566 137.346 217.394 137.6C217.187 137.636 216.946 137.636 216.773 137.746C216.532 137.891 216.463 138 216.291 138C216.084 138 215.946 137.636 215.946 137.527C215.946 137.455 216.015 137.273 216.084 137.164C216.153 137.018 216.118 136.8 216.118 136.728C216.118 136.619 216.118 136.619 216.118 136.546C216.256 136.4 216.394 136.437 216.463 136.4C216.601 136.291 216.773 136.182 216.946 136.001C217.049 136.001 217.187 136.001 217.291 136.001C217.498 136.001 217.946 135.964 217.946 136.437Z" fill="#AEC4DB"/>
<path d="M219.25 135C219.358 135.134 219.503 135.269 219.575 135.471C219.647 135.639 219.539 135.874 219.611 136.076C219.647 136.277 219.827 136.513 219.972 136.748C220.044 136.815 220.224 136.882 220.26 137.017C220.296 137.118 220.369 137.319 220.405 137.521C220.549 137.555 220.946 137.521 220.946 137.824C220.946 137.958 220.765 138.025 220.585 138.227C220.585 138.261 220.621 138.261 220.621 138.328C220.621 138.529 220.008 138.664 219.972 138.664C219.647 138.698 219.25 138.664 218.926 138.765C218.637 138.832 218.529 139 218.312 139C218.096 139 218.096 138.866 218.096 138.798C218.096 138.731 218.384 138.025 218.384 137.756C218.348 137.655 218.421 137.487 218.637 137.42C218.745 137.353 219.034 137.454 219.034 137.252C219.034 137.151 218.962 136.983 218.853 136.882C218.745 136.815 218.565 136.782 218.493 136.714C218.312 136.613 218.132 136.479 218.024 136.311C217.915 136.076 217.952 135.706 217.952 135.605C217.952 135.471 218.348 135 218.493 135H219.25Z" fill="#AEC4DB"/>
<path d="M213.955 132.073C214.013 132.073 214.677 132 214.763 132H215.6C215.744 132.122 215.946 132.22 215.946 132.317C215.946 132.39 215.83 132.537 215.744 132.561C215.427 132.659 215.052 132.732 214.763 132.829C214.619 132.878 214.417 133 214.359 133C214.273 133 214.128 132.927 214.013 132.902C213.811 132.878 213.58 132.878 213.378 132.829C213.292 132.732 213.234 132.585 213.148 132.488C213.09 132.415 212.946 132.341 212.946 132.268C212.946 132.171 213.292 132.024 213.35 132C213.407 132 213.436 132 213.523 132C213.58 132 213.869 132.073 213.955 132.073Z" fill="#E7EFF5"/>
<path d="M198.459 129.117C198.65 129.242 198.746 129.741 199.064 129.803C199.351 129.866 199.862 129.897 200.117 130.365C200.212 130.489 200.149 130.708 200.149 130.864C200.149 130.988 200.436 131.207 200.627 131.3C200.754 131.363 200.946 131.768 200.946 131.831C200.946 132.018 200.34 132.392 200.244 132.486C200.181 132.548 200.149 132.548 200.053 132.548C199.798 132.548 199.607 132.018 199.383 132.018C199.288 132.018 199.256 132.049 199.256 132.111C199.256 132.205 199.511 132.704 199.511 132.798C199.511 132.86 199.479 132.985 199.383 133.078C199.288 133.172 198.522 133.796 198.395 133.796C198.076 133.796 197.247 133.359 197.183 133.297C197.119 133.203 197.024 132.735 196.769 132.735C196.673 132.735 196.418 132.798 196.322 132.798C196.258 132.798 195.812 132.735 195.557 132.704C195.525 132.704 195.493 132.673 195.493 132.61C195.493 132.392 195.812 132.143 196.003 132.143C196.067 132.143 196.514 132.267 196.609 132.267C196.673 132.267 196.896 132.236 197.056 132.205C197.056 131.706 197.885 131.706 197.885 131.3C197.885 131.113 197.63 131.113 197.534 131.051C197.47 130.988 197.438 130.864 197.374 130.801C197.247 130.708 197.024 130.614 196.928 130.614H196.099C195.876 130.832 195.589 131.176 195.366 131.456C195.174 131.706 194.824 131.893 194.537 131.987C194.409 132.049 194.25 132.018 194.122 132.08C194.09 132.111 194.09 132.143 194.09 132.205C194.09 132.579 194.441 132.735 194.441 132.798C194.441 132.953 194.25 133.047 194.186 133.047C194.09 133.047 193.771 132.86 193.676 132.86C193.612 132.86 192.942 133.203 192.878 133.203C192.847 133.203 192.336 132.891 192.081 132.891C191.507 132.891 191.794 133.016 190.997 133.39C190.774 133.484 190.487 133.453 190.296 133.546C190.104 133.609 189.849 133.702 189.69 133.827C189.562 133.889 189.403 133.983 189.307 134.108C189.116 134.264 188.765 134.451 188.765 134.7C188.765 134.763 188.829 134.856 188.861 134.981C188.893 135.074 188.861 135.418 189.084 135.48C189.243 135.542 189.467 135.574 189.658 135.667C189.785 135.729 189.881 135.885 190.009 135.979C190.168 136.104 190.391 136.26 190.646 136.322C190.965 136.416 191.284 136.322 191.603 136.54C191.539 136.634 191.093 137.258 191.093 137.507C191.093 137.57 191.125 138.006 191.412 138.006C191.475 138.006 191.954 137.695 192.018 137.57C192.049 137.539 192.049 137.476 192.049 137.414C191.986 137.164 192.273 137.04 192.209 136.821C192.177 136.478 192.687 136.385 192.974 136.322C193.357 136.229 193.931 135.667 193.931 135.418C193.931 135.324 193.676 135.106 193.676 135.012C193.676 134.763 193.963 134.731 194.122 134.7C194.154 134.7 194.282 134.607 194.313 134.544C194.377 134.419 194.345 134.232 194.377 134.108C194.409 133.858 194.664 134.014 194.664 133.64C194.792 133.39 195.015 133.297 195.174 133.297C195.27 133.297 195.94 133.297 196.29 133.39C196.418 133.421 197.151 134.076 197.151 134.201C197.151 134.264 196.928 134.669 196.928 134.763C196.928 134.95 197.183 135.043 197.343 135.043C197.534 135.043 198.554 134.326 198.586 134.326C198.841 134.326 199.128 135.106 199.128 135.168V136.073C199.192 136.229 199.224 136.416 199.383 136.509C199.511 136.603 199.702 136.54 199.83 136.759C199.862 136.821 199.83 136.884 199.83 136.946C199.957 137.133 200.149 137.195 200.149 137.289C200.149 137.383 199.862 138.443 199.862 138.506C199.862 138.786 200.372 138.786 200.372 139.005C200.372 139.067 200.276 139.129 200.244 139.223C200.212 139.254 200.244 139.348 200.244 139.441C200.244 139.566 200.34 139.816 200.34 139.816C200.34 140.034 200.085 140.19 199.957 140.19C199.766 140.19 199.32 139.94 199.128 139.909C198.746 139.847 198.331 139.94 197.917 139.909C197.917 139.878 197.885 139.847 197.885 139.784C197.885 139.504 198.459 139.067 198.459 138.849C198.459 138.661 198.331 138.661 198.267 138.661C198.204 138.661 197.885 138.786 197.821 138.786C197.725 138.786 197.215 138.693 197.119 138.693C196.992 138.693 196.45 138.817 196.418 138.88C196.45 139.036 196.482 139.192 196.418 139.348C196.354 139.472 196.163 139.597 196.067 139.784C196.003 139.847 196.035 140.003 196.035 140.065C196.035 140.751 197.056 140.283 197.056 140.845C197.056 140.907 197.024 140.97 196.864 141.001C196.609 141.063 196.322 141.094 196.035 141.157C195.94 141.188 195.78 141.157 195.685 141.188C195.398 141.282 195.302 141.656 195.047 141.656C194.664 141.656 194.951 141.313 194.664 141.313H193.995C193.739 141.656 193.293 141.437 193.006 141.999C192.974 142.061 193.07 142.217 192.974 142.342C192.847 142.498 192.623 142.56 192.432 142.623C192.305 142.654 192.113 142.623 191.986 142.685C191.252 142.997 190.487 143.964 190.136 144.65C190.072 144.775 190.041 144.993 189.977 145.149C189.945 145.243 189.785 145.305 189.722 145.43C189.69 145.43 189.722 145.555 189.658 145.586C189.403 145.742 189.116 145.867 188.829 146.023C188.733 146.085 188.606 146.085 188.542 146.147C188.191 146.366 187.84 146.584 187.522 146.896C187.394 147.021 187.298 147.208 187.203 147.395C187.171 147.457 187.171 147.582 187.171 147.676C187.171 147.738 187.394 148.986 187.394 149.048C187.394 149.454 187.235 149.859 186.756 149.921C186.182 148.861 186.278 149.048 186.278 148.3C186.278 148.144 186.119 147.894 185.959 147.894C185.832 147.863 185.672 147.925 185.513 147.894C185.385 147.645 185.226 147.582 185.034 147.582C184.971 147.582 184.524 147.645 184.301 147.707C184.11 147.769 183.918 148.144 183.855 148.144C183.759 148.144 183.408 148.081 183.185 148.05C183.153 148.05 183.089 148.019 183.057 147.988C182.994 147.988 182.898 147.988 182.834 147.988C182.707 147.988 182.483 147.863 182.388 147.863C182.228 147.863 181.909 148.05 181.814 148.112C181.591 148.206 181.304 148.3 181.112 148.424C180.889 148.549 180.666 148.674 180.57 148.892C180.475 149.048 180.538 149.298 180.475 149.516C180.411 149.766 180.188 150.015 180.124 150.296C180.028 150.514 179.996 150.951 179.996 151.044C179.996 151.107 180.028 151.606 180.028 151.699C180.028 151.762 180.156 152.136 180.219 152.354C180.283 152.635 180.921 152.853 181.144 152.853C181.24 152.853 181.336 152.822 182.037 152.822C182.356 152.791 182.452 152.386 182.515 152.198C182.579 152.042 182.579 151.855 182.643 151.731C182.643 151.668 183.44 151.419 183.568 151.419C183.695 151.419 184.237 151.419 184.237 151.668C184.237 151.731 184.046 151.887 183.982 152.042C183.95 152.074 183.982 152.198 183.95 152.292C183.918 152.479 183.823 152.697 183.727 152.916C183.663 153.072 183.504 153.197 183.408 153.384C183.376 153.446 183.376 153.602 183.376 153.696C183.376 154.07 183.695 154.07 183.886 154.07C183.982 154.07 184.269 154.008 184.333 154.008C184.747 154.008 184.715 154.07 185.226 154.351C185.289 154.444 185.289 154.538 185.289 154.631C185.289 154.694 185.289 154.787 185.258 154.85C185.226 154.943 185.162 155.006 185.13 155.13C185.034 155.536 184.907 156.347 184.907 156.409C184.907 156.721 185.481 157.064 185.545 157.095C185.64 157.127 185.768 157.189 185.863 157.189C185.927 157.189 186.087 157.127 186.15 157.127C186.342 157.127 186.374 157.127 186.374 157.314C186.374 157.376 186.342 157.439 186.31 157.501C186.31 157.501 186.214 157.532 186.214 157.595C186.214 157.688 186.278 157.719 186.278 157.782C186.278 158 186.023 158 185.959 158C185.895 158 185.832 158 185.8 157.969C185.736 157.906 185.704 157.782 185.64 157.75C185.449 157.657 185.194 157.657 185.002 157.563C184.875 157.532 184.843 157.345 184.747 157.251C184.588 157.064 184.333 156.971 184.205 156.908C183.823 156.752 183.855 156.316 183.759 156.097C183.663 155.817 183.472 155.474 183.153 155.411C183.089 155.38 182.962 155.411 182.898 155.38C182.707 155.349 182.547 155.286 182.42 155.224C182.165 155.13 181.909 155.13 181.654 154.881C181.336 154.6 181.049 154.07 180.634 154.07C180.57 154.07 179.996 154.195 179.901 154.195C179.454 154.195 178.402 153.664 178.115 153.508C177.987 153.477 177.924 153.321 177.828 153.259C177.669 153.165 177.445 153.134 177.318 153.041C177.19 152.978 177.127 152.822 177.063 152.76C176.935 152.697 176.776 152.697 176.68 152.573C176.553 152.417 176.521 152.136 176.521 152.042C176.521 151.98 176.68 151.668 176.68 151.606C176.68 151.512 176.648 151.325 176.616 151.232C176.584 151.076 176.425 150.951 176.361 150.826C176.266 150.639 176.202 150.421 176.042 150.265C175.915 150.077 175.692 149.921 175.532 149.766C175.5 149.734 175.5 149.703 175.5 149.61C175.5 149.547 175.564 149.516 175.564 149.422C175.564 149.36 175.405 149.204 175.309 149.079C175.245 148.986 175.277 148.83 175.213 148.736C175.118 148.518 174.863 148.331 174.767 148.112C174.703 148.019 174.831 147.114 174.544 147.114C174.289 147.114 174.32 147.395 174.32 147.457C174.32 147.551 174.448 148.237 174.512 148.611C174.512 148.705 174.639 148.83 174.671 148.955C174.767 149.204 174.831 149.547 174.926 149.859C174.958 149.89 174.926 150.015 174.958 150.077C175.086 150.296 175.277 150.389 175.277 150.577C175.277 150.732 175.15 150.888 175.054 150.888C174.99 150.888 174.512 150.421 174.289 150.171C174.129 149.984 174.193 149.672 174.129 149.454C174.129 149.36 174.002 149.391 173.97 149.329C173.746 149.142 173.555 149.017 173.555 148.83C173.555 148.487 173.874 148.705 173.874 148.424C173.874 148.206 173.715 148.206 173.587 147.956C173.396 147.551 173.523 147.426 173.523 147.177C173.523 147.083 173.428 146.522 173.332 146.241C173.268 146.054 173.045 145.898 172.886 145.804C172.79 145.773 172.63 145.773 172.535 145.711C172.439 145.679 172.439 145.586 172.439 145.524C172.407 144.962 172.375 144.744 172.375 144.65C172.375 144.588 172.439 144.276 172.439 144.182C172.439 144.12 172.248 143.683 172.248 143.621C172.248 143.527 172.28 143.434 172.312 143.34C172.343 143.278 172.28 143.153 172.312 143.091C172.407 142.903 172.599 142.748 172.694 142.592C172.79 142.436 172.79 142.217 172.886 142.061C173.045 141.781 173.364 141.531 173.587 141.25C173.874 140.907 174.161 140.533 174.352 140.159C174.48 139.94 174.576 139.597 174.576 139.504C174.576 139.192 174.161 138.973 174.161 138.63C174.161 138.443 174.257 138.474 174.384 138.256C174.448 138.162 174.448 138.038 174.48 137.975C174.512 137.851 174.576 137.788 174.607 137.695C174.607 137.632 174.576 137.539 174.576 137.476V136.884C174.639 136.572 174.703 136.041 174.703 135.948C174.703 135.885 174.576 135.792 174.544 135.698C174.48 135.386 174.193 134.919 173.906 134.669C173.778 134.544 173.523 134.575 173.396 134.513C173.141 134.419 172.79 134.482 172.599 134.388C172.28 134.264 172.12 134.139 171.897 134.139C171.77 134.139 171.578 134.108 171.451 134.326C171.419 134.357 171.419 134.451 171.355 134.482C170.877 134.669 170.016 134.887 169.92 134.887C169.856 134.887 169.665 134.825 169.569 134.825C169.506 134.825 169.219 134.919 169.027 134.981C167.847 135.418 166.668 135.823 165.488 136.416C165.424 136.447 165.297 136.478 165.233 136.478C165.105 136.478 164.946 136.385 164.946 136.229C164.946 136.135 166.253 135.698 166.731 135.262C166.7 135.199 166.636 135.137 166.572 135.074C166.476 135.106 166.349 135.106 166.285 135.043C166.094 134.856 165.934 134.482 165.934 134.388C165.934 134.326 166.062 134.232 166.126 134.17C166.189 134.076 166.221 133.858 166.317 133.764C166.413 133.671 166.604 133.671 166.731 133.609C167.082 133.453 167.529 133.265 167.943 133.141C168.103 133.109 168.294 133.016 168.453 132.922C168.517 132.891 168.581 132.829 168.613 132.766C168.517 132.673 168.421 132.673 168.421 132.673C168.358 132.673 168.134 132.735 168.071 132.735C167.975 132.735 167.943 132.704 167.943 132.61C167.943 132.548 168.039 132.298 168.039 132.143C168.071 132.111 168.134 132.018 168.198 132.018C168.772 131.862 169.601 131.955 169.92 131.519C169.984 131.456 169.984 131.363 169.984 131.3C169.952 130.957 170.207 130.895 170.43 130.864C170.685 130.801 171.036 130.801 171.323 130.708C171.546 130.645 171.801 130.521 172.057 130.458C172.216 130.427 172.375 130.302 172.599 130.24C172.917 130.146 173.587 130.084 173.683 130.084H174.384C174.544 130.022 174.735 129.959 174.831 129.959C174.894 129.959 175.437 130.053 175.755 130.115C175.915 130.146 176.106 130.115 176.297 130.177C176.68 130.271 176.999 130.302 177.413 130.333C177.669 130.365 177.956 130.271 178.243 130.365C178.37 130.396 178.498 130.552 178.689 130.583C178.753 130.614 178.912 130.552 179.008 130.583C179.199 130.645 179.486 130.739 179.55 130.739C179.646 130.739 179.805 130.645 179.964 130.614C180.156 130.583 180.443 130.583 180.698 130.552C180.953 130.521 181.208 130.427 181.527 130.396C181.75 130.365 181.973 130.427 182.196 130.396C182.356 130.396 182.579 130.271 182.675 130.271C182.739 130.271 182.93 130.365 183.121 130.365C183.44 130.396 183.727 130.333 184.078 130.427C184.333 130.489 184.588 130.677 184.907 130.801C185.034 130.864 185.226 130.801 185.385 130.801C185.513 130.801 185.64 130.926 185.832 131.02C186.087 131.207 186.15 131.176 186.405 131.176C186.788 131.176 186.884 131.113 187.426 130.988C187.649 130.926 188.127 130.895 188.223 130.895C188.797 130.895 188.606 131.269 189.212 131.269C189.307 131.269 189.499 131.207 189.594 131.207H190.328C190.359 131.176 190.391 131.082 190.487 131.082C190.583 131.051 190.678 131.082 190.742 131.082C190.838 131.082 191.316 131.176 191.412 131.176C191.571 131.176 191.794 130.988 191.794 130.864C191.794 130.77 191.731 130.552 191.731 130.489C191.731 130.146 192.56 129.803 192.591 129.803C192.623 129.803 192.687 129.834 192.687 129.803C192.783 129.772 192.847 129.741 192.942 129.741C193.006 129.741 193.134 129.803 193.165 129.928C193.261 130.209 193.197 130.614 193.516 130.708C193.58 130.739 193.771 130.77 193.835 130.77C193.995 130.77 194.218 130.521 194.218 130.427C194.218 130.365 194.09 130.115 194.09 130.053C194.09 129.741 195.047 129.117 195.174 129.117C195.525 129.086 195.908 129.086 196.258 129.086C196.96 129.023 197.406 129.023 197.47 129.023C197.821 129.023 198.14 128.93 198.459 129.117Z" fill="#064685"/>
<path d="M250.54 127.325C251.285 127.325 251.415 127.357 251.512 127.357C251.739 127.357 252.29 127.582 252.55 127.871C252.582 127.903 252.614 128.032 252.679 128.128C252.777 128.225 252.906 128.321 253.068 128.353C253.36 128.417 254.009 128.482 254.106 128.482C254.171 128.482 254.365 128.353 254.56 128.353C254.819 128.321 255.338 128.321 255.403 128.321C255.5 128.321 256.116 128.353 256.181 128.353C256.278 128.353 257.607 128.417 258.288 128.546C258.58 128.578 258.872 128.899 259.196 129.028C259.391 129.124 259.812 129.221 259.909 129.221C260.331 129.221 260.979 128.707 261.466 128.707C261.53 128.707 261.822 128.739 262.017 128.771C262.471 128.835 262.892 128.739 263.378 128.899C263.443 128.932 263.605 128.867 263.703 128.899C263.962 128.964 264.157 129.06 264.481 129.092C265.551 129.285 265.129 129.414 265.94 129.414C266.037 129.414 266.88 129.349 266.945 129.349C267.042 129.349 267.723 129.478 268.112 129.542C268.209 129.542 268.274 129.671 268.404 129.735C268.533 129.831 268.825 129.896 268.922 129.896H270.673C271.16 129.735 271.354 129.767 271.776 129.767C272.91 129.767 275.31 130.185 276.217 130.345C276.315 130.345 276.412 130.442 276.542 130.474C276.606 130.506 276.768 130.506 276.866 130.538C277.093 130.635 277.32 130.763 277.611 130.859C277.741 130.924 277.936 130.924 278.163 130.956C278.227 130.956 279.946 131.181 279.946 131.888C279.946 132.209 279.654 132.241 279.492 132.241C279.006 132.241 278.195 131.791 277.806 131.791C277.709 131.791 277.287 131.92 277.287 132.081C277.287 132.37 278.13 132.53 278.227 132.563C278.325 132.627 278.422 132.723 278.487 132.82C278.26 133.109 277.968 132.948 277.741 133.077C276.769 133.527 277.06 134.009 276.379 134.009C276.315 134.009 276.12 133.944 276.055 133.944C275.958 133.944 275.569 134.169 275.31 134.298C275.31 134.33 275.31 134.362 275.31 134.426C275.31 134.523 275.31 134.555 275.31 134.587C275.439 134.715 275.536 134.876 275.634 135.037C275.666 135.069 275.796 135.165 275.861 135.262C275.99 135.39 276.055 135.615 276.153 135.776C276.185 135.84 276.315 135.872 276.379 136.001C276.542 136.226 276.509 136.418 276.509 136.579C276.509 137.061 276.509 136.868 276.347 137.479C276.315 137.575 276.315 137.736 276.25 137.864C276.217 137.929 276.185 137.961 276.088 137.961C275.828 137.961 273.753 135.936 273.429 135.487C273.332 135.326 273.267 135.037 273.267 134.973C273.267 134.876 273.299 134.908 273.299 134.876C273.397 134.555 273.656 133.944 273.656 133.848C273.656 133.655 273.137 133.687 273.137 133.687C273.04 133.687 272.878 133.623 272.781 133.591C272.683 133.559 272.651 133.43 272.586 133.398C272.424 133.302 272.197 133.269 272.1 133.269C271.905 133.269 271.711 133.398 271.711 133.591C271.711 134.008 272.035 133.88 272.035 134.233C272.035 134.49 271.257 134.49 271.192 134.49C270.544 134.49 270.803 134.233 270.381 134.233C270.284 134.233 269.603 134.266 269.506 134.266C269.441 134.266 269.117 134.362 269.02 134.362C268.955 134.362 268.631 134.298 268.566 134.298C268.404 134.298 268.08 134.233 267.95 134.426C267.755 134.651 267.658 134.94 267.528 135.23C267.464 135.326 267.496 135.487 267.464 135.615C267.431 135.712 267.399 135.808 267.399 135.904C267.399 136.097 268.339 136.451 268.339 136.451C268.436 136.451 268.533 136.386 268.598 136.386C268.696 136.386 269.441 136.451 269.506 136.451C269.603 136.451 269.83 136.386 269.895 136.386C270.057 136.386 270.414 136.868 270.446 136.933C270.479 136.997 270.608 136.965 270.706 137.061C271.062 137.447 271.354 137.929 271.711 138.282C271.84 138.443 272.262 138.507 272.262 138.796C272.262 138.861 272.359 138.893 272.392 138.989C272.489 139.118 272.521 139.31 272.586 139.471C272.651 139.632 272.878 139.889 272.878 139.953C272.878 140.146 272.619 140.274 272.521 140.274C272.067 140.274 271.776 138.957 271.289 138.957C271.192 138.957 271.095 139.085 271.062 139.182C270.9 139.471 270.965 139.825 270.9 140.146C270.9 140.307 270.771 140.499 270.706 140.692C270.576 140.949 270.706 141.399 270.317 141.688C270.122 141.817 269.928 141.72 269.733 141.752C269.312 141.785 269.312 142.331 269.214 142.556C269.149 142.749 268.793 143.038 268.793 143.102C268.793 143.198 268.858 143.327 268.987 143.391C269.279 143.552 269.733 143.97 269.96 144.323C270.122 144.548 270.317 145.03 270.317 145.094C270.317 145.191 270.252 145.255 270.187 145.287C270.09 145.351 269.928 145.351 269.83 145.416C269.603 145.512 269.441 145.576 269.247 145.608C269.117 145.384 269.085 145.062 268.955 144.869C268.825 144.612 268.436 144.195 268.242 144.034C268.112 143.938 267.917 143.905 267.853 143.777C267.788 143.68 267.82 143.52 267.788 143.456C267.723 143.295 267.496 143.102 267.366 143.102C267.269 143.102 267.042 143.134 266.945 143.198C266.783 143.295 266.588 143.552 266.523 143.552C266.426 143.552 266.491 143.552 266.458 143.52C266.361 143.456 266.329 143.327 266.264 143.231C266.232 143.166 266.264 143.07 266.264 143.006C266.167 142.877 266.005 142.845 265.972 142.845C265.648 142.845 265.583 143.263 265.583 143.359C265.583 143.584 265.972 144.034 266.134 144.034C266.232 144.034 266.394 143.938 266.458 143.938C266.556 143.938 266.653 144.002 266.783 144.034C266.88 144.098 267.074 144.066 267.237 144.098C267.301 144.098 267.399 144.195 267.399 144.291C267.399 144.355 267.334 144.419 267.269 144.452C267.172 144.484 267.01 144.452 266.912 144.548C266.75 144.644 266.653 144.934 266.653 145.03C266.653 145.094 267.366 146.123 267.561 146.38C267.69 146.508 267.885 146.637 267.982 146.829C268.112 147.054 268.306 147.536 268.306 147.633V148.211C268.274 148.34 268.177 148.436 268.144 148.565C268.112 148.629 268.112 148.79 268.08 148.886C268.047 149.014 267.95 149.143 267.917 149.272C267.853 149.368 267.917 149.529 267.853 149.657C267.593 150.107 267.139 150.653 266.815 150.878C266.621 151.007 266.361 151.039 266.199 151.135C266.134 151.135 266.134 151.232 266.102 151.264C265.713 151.521 264.87 152.164 264.383 152.164C264.027 152.164 263.703 151.681 263.541 151.681C263.151 151.681 262.795 152.388 262.795 152.581C262.795 152.678 262.827 152.838 262.925 152.967C263.151 153.288 263.541 153.609 263.865 153.963C264.027 154.124 264.189 154.349 264.319 154.573C264.416 154.734 264.416 154.991 264.481 155.184C264.513 155.345 264.643 155.57 264.643 155.666C264.643 156.598 264.189 156.341 263.281 157.369C263.216 157.433 263.087 157.69 262.925 157.69C262.698 157.69 262.309 156.887 262.114 156.694C262.049 156.63 262.049 156.501 262.017 156.437C261.919 156.212 261.725 155.827 261.466 155.762C261.368 155.73 261.206 155.73 261.141 155.73C260.72 155.73 260.558 156.791 260.558 156.887C260.558 156.951 260.558 157.016 260.558 157.08C260.655 157.144 260.785 157.144 260.85 157.273C260.882 157.337 260.882 157.498 260.947 157.594C261.012 157.722 261.076 157.851 261.174 157.98C261.368 158.204 261.66 158.365 261.855 158.59C262.082 158.815 262.341 159.104 262.406 159.425C262.438 159.618 262.406 159.875 262.471 160.1C262.535 160.325 262.762 160.743 262.762 160.807C262.762 160.968 262.568 161 262.535 161C262.276 161 261.595 160.389 261.53 160.325C261.174 159.811 261.044 159.265 260.752 158.783C260.655 158.59 260.525 158.397 260.428 158.269C260.331 158.108 260.169 158.044 260.104 157.947C260.007 157.819 260.039 157.562 260.039 157.498C260.039 157.401 260.136 157.08 260.136 156.983C260.136 156.919 260.071 156.726 260.071 156.662C260.071 156.566 260.136 156.373 260.136 156.276C260.136 155.666 259.747 154.991 259.553 154.541C259.52 154.477 259.553 154.381 259.52 154.349C259.423 154.188 259.261 154.059 259.164 154.059C259.002 154.059 258.677 154.381 258.58 154.381C258.483 154.381 258.483 154.284 258.418 154.252C258.353 154.22 258.256 154.252 258.191 154.22C258.126 154.156 258.061 154.059 258.094 153.995C258.094 153.931 258.126 153.834 258.126 153.738C258.061 153.224 257.802 152.742 257.607 152.421C257.38 152.421 257.121 152.035 256.959 151.81C256.862 151.681 256.829 151.489 256.7 151.36C256.635 151.296 256.57 151.296 256.505 151.296C256.408 151.296 255.695 151.424 255.338 151.521C255.208 151.553 255.111 151.681 254.981 151.81C255.014 151.906 255.014 152.003 254.949 152.099C254.787 152.356 254.43 152.421 254.333 152.549C254.073 152.742 253.911 153.095 253.717 153.352C253.652 153.449 253.49 153.513 253.425 153.609C253.295 153.706 253.263 153.867 253.133 153.995C252.939 154.156 252.55 154.381 252.55 154.638C252.55 154.734 252.647 155.184 252.647 155.28C252.647 155.345 252.582 155.827 252.55 156.084C252.55 156.18 252.485 156.309 252.485 156.405C252.485 156.469 252.55 156.566 252.55 156.662C252.55 156.726 252.42 156.791 252.388 156.887C252.323 156.983 252.258 157.144 252.161 157.273C252.096 157.369 251.934 157.433 251.836 157.53C251.707 157.626 251.512 157.819 251.447 157.819C251.382 157.819 251.22 157.658 251.123 157.53C250.929 157.176 250.864 156.758 250.669 156.469C250.313 155.891 250.215 155.473 250.021 154.991C249.988 154.863 249.859 154.766 249.794 154.638C249.502 153.995 249.21 153.288 249.178 152.678C249.178 152.613 249.113 152.517 249.081 152.421C249.048 152.356 249.113 152.26 249.113 152.196C249.113 152.099 248.886 151.874 248.821 151.874C248.724 151.874 248.4 152.003 248.335 152.003C248.238 152.003 247.719 151.553 247.492 151.264C247.395 151.135 247.427 150.942 247.33 150.878C247.006 150.525 246.325 149.85 246.227 149.85H245.611C245.222 149.946 244.509 150.011 244.412 150.011C244.347 150.011 243.277 149.818 242.758 149.657C242.467 149.593 242.531 149.079 242.272 149.079C242.175 149.079 241.688 149.304 241.624 149.304C241.526 149.304 241.397 149.207 241.299 149.175C240.975 149.079 240.748 148.982 240.424 148.725C240.359 148.661 240.262 148.693 240.229 148.661C239.97 148.5 240.003 148.275 239.905 148.115C239.84 147.922 239.678 147.729 239.516 147.633C239.419 147.601 239.289 147.569 239.224 147.569C238.997 147.569 238.9 147.858 238.9 147.922C238.9 148.018 239.062 148.468 239.257 148.693C239.354 148.822 239.549 148.918 239.743 149.014C239.808 149.079 239.938 149.111 240.035 149.143C240.067 149.175 240.067 149.207 240.067 149.239C240.424 149.529 240.424 149.561 240.424 149.818C240.424 149.914 240.359 150.043 240.359 150.107C240.359 150.268 240.845 150.3 240.91 150.3C241.591 150.3 241.624 149.689 242.013 149.689C242.304 149.689 242.531 150.364 242.791 150.428C242.888 150.46 243.05 150.396 243.18 150.46C243.374 150.557 243.796 151.167 243.796 151.264C243.796 151.489 243.374 152.099 243.31 152.228C243.245 152.356 243.245 152.549 243.147 152.71C243.018 152.935 242.758 153.127 242.564 153.288C242.467 153.352 242.304 153.417 242.207 153.481C242.11 153.513 242.078 153.642 242.013 153.674C241.786 153.77 241.494 153.867 241.267 153.995C241.137 154.059 241.008 154.252 240.878 154.413C240.716 154.606 240.392 154.67 240.165 154.734C239.938 154.766 239.743 154.991 239.516 155.088C239.192 155.216 238.803 155.312 238.511 155.441C238.317 155.505 237.992 155.73 237.928 155.73C237.798 155.73 237.603 155.57 237.474 155.441C237.344 155.28 237.344 155.055 237.247 154.927C236.987 154.477 236.89 154.156 236.76 153.834C236.696 153.642 236.566 153.449 236.436 153.256C236.371 153.16 236.371 152.999 236.339 152.935C236.209 152.549 235.658 152.26 235.496 152.035C235.366 151.81 235.366 151.424 235.269 151.232C235.204 151.007 235.107 150.718 234.88 150.525C234.783 150.428 234.621 150.364 234.556 150.236C234.361 149.786 234.069 149.432 233.778 148.982C233.615 148.725 233.551 148.436 233.421 148.211C233.356 148.05 233.259 147.922 233.194 147.793C233.129 147.601 233.097 147.279 233.097 147.215C233.097 147.119 233.291 146.476 233.389 146.09C233.453 145.898 233.648 145.512 233.648 145.448C233.648 145.351 233.615 144.998 233.615 144.934C233.615 144.709 233.324 144.58 233.194 144.58C232.902 144.58 232.935 144.837 232.546 144.837C232.448 144.837 232.351 144.837 232.319 144.805C232.059 144.644 231.8 144.548 231.605 144.548C231.508 144.548 231.508 144.644 231.443 144.677C231.411 144.709 231.346 144.741 231.281 144.741C231.184 144.741 230.827 144.548 230.6 144.484C230.503 144.452 230.341 144.516 230.276 144.452C229.628 144.13 229.693 143.423 229.693 142.941C229.693 142.781 229.303 142.62 229.141 142.62C229.044 142.62 228.817 142.974 228.817 143.038C228.817 143.134 228.979 143.616 228.979 143.713C228.979 143.777 228.785 144.291 228.655 144.612C228.428 144.612 228.136 144.612 228.007 144.419C227.909 144.259 227.942 144.034 227.844 143.905C227.812 143.809 227.682 143.713 227.618 143.648C227.455 143.456 227.358 143.198 227.261 143.038C227.228 142.941 227.131 142.909 227.099 142.845C227.066 142.716 227.099 142.524 227.066 142.427C227.034 142.267 226.904 141.913 226.742 141.817C226.548 141.688 226.353 141.528 226.159 141.399C226.126 141.367 226.029 141.399 225.996 141.367C225.607 141.238 225.445 140.853 225.056 140.596C224.959 140.564 224.927 140.467 224.829 140.467C224.7 140.467 224.537 140.628 224.537 140.724C224.537 141.142 224.732 141.046 224.959 141.399C224.991 141.431 224.991 141.528 225.024 141.592C225.153 141.752 225.316 141.849 225.51 141.945C225.575 141.977 225.705 141.945 225.802 142.01C225.996 142.17 226.839 142.62 226.839 142.877C226.839 142.941 226.775 143.07 226.71 143.07C226.612 143.07 226.548 142.941 226.483 142.909C226.418 142.877 226.321 142.909 226.223 142.877C226.191 142.909 226.159 142.941 226.159 143.038C226.159 143.102 226.288 143.231 226.288 143.295C226.288 143.391 226.191 143.456 226.159 143.552C226.126 143.584 226.159 143.68 226.094 143.745C225.964 143.873 225.802 143.97 225.607 144.002C225.575 144.034 225.672 144.516 225.413 144.516C225.316 144.516 224.764 144.195 224.505 144.034C224.473 144.034 224.408 144.002 224.408 143.905C224.408 143.841 224.473 143.745 224.57 143.745C224.797 143.713 225.056 143.809 225.283 143.745C225.38 143.745 225.478 143.713 225.575 143.68C225.705 143.584 225.737 143.423 225.737 143.327C225.737 143.166 225.445 142.845 225.251 142.684C225.089 142.556 224.894 142.556 224.764 142.459C224.44 142.299 223.954 141.881 223.662 141.56C223.662 141.528 223.63 141.463 223.597 141.431C223.565 141.367 223.208 141.013 223.111 141.013C223.014 141.013 222.884 141.206 222.754 141.27C222.689 141.303 222.56 141.27 222.527 141.335C222.398 141.399 222.236 141.592 222.171 141.592C222.073 141.592 221.522 141.399 221.425 141.399C221.295 141.399 221.068 141.495 221.004 141.592C221.004 141.72 221.004 141.881 220.971 142.042C220.971 142.074 220.939 142.138 220.906 142.17C220.777 142.299 220.582 142.427 220.42 142.524C220.323 142.556 220.161 142.524 220.096 142.62C219.934 142.813 219.804 143.07 219.577 143.295C219.642 143.391 219.707 143.488 219.707 143.552C219.707 143.648 219.512 143.745 219.447 143.873C219.415 143.905 219.415 144.034 219.382 144.098C219.285 144.195 219.156 144.259 219.026 144.355C218.896 144.452 218.669 144.58 218.604 144.58C218.41 144.58 218.15 144.548 217.988 144.612C217.729 144.677 217.859 144.741 217.664 144.741C217.178 144.741 216.951 144.323 216.756 144.323C216.659 144.323 216.497 144.387 216.4 144.387C216.335 144.387 216.205 144.355 216.108 144.291C216.108 144.098 216.14 143.873 216.075 143.713C216.075 143.616 215.946 143.52 215.946 143.456C215.946 143.359 216.205 142.909 216.302 142.62C216.302 142.459 216.27 142.299 216.27 142.138C216.27 142.042 216.335 141.881 216.335 141.817C216.335 141.72 216.238 141.624 216.238 141.56C216.238 141.495 216.821 141.174 216.821 141.174C216.886 141.174 216.951 141.206 217.081 141.238C217.891 141.27 218.215 141.27 218.28 141.27C218.377 141.27 218.799 141.335 219.026 141.335C219.156 141.238 219.188 141.078 219.188 140.981C219.22 140.821 219.318 140.499 219.318 140.435C219.318 140.146 218.929 139.535 218.572 139.439C218.475 139.407 218.313 139.407 218.248 139.375C218.118 139.343 217.988 139.021 217.988 139.021C217.988 138.764 218.864 138.957 219.123 138.539C219.156 138.443 219.318 138.411 219.415 138.411C219.48 138.411 219.707 138.539 219.772 138.539C219.869 138.539 220.355 138.218 220.388 138.154C220.55 137.768 220.939 137.768 221.198 137.543C221.393 137.382 221.49 137.158 221.717 136.997C221.814 136.9 222.009 136.836 222.171 136.772C222.365 136.676 222.625 136.611 222.754 136.418C222.852 136.258 222.754 136.065 222.754 135.904C222.754 135.551 223.014 135.005 223.403 135.005C223.662 135.005 223.662 135.487 223.662 135.551C223.662 135.647 223.532 135.936 223.532 136.033C223.532 136.194 223.792 136.451 223.986 136.451C224.051 136.451 224.473 136.226 224.537 136.226C224.635 136.226 224.927 136.579 225.024 136.579C225.089 136.579 225.316 136.483 225.478 136.418C225.802 136.258 226.126 136.226 226.45 136.161C226.58 136.129 226.839 136.161 226.969 136.065C227.164 135.936 227.261 135.647 227.261 135.454C227.326 135.294 227.293 135.069 227.52 134.973C227.618 134.908 227.812 134.876 227.974 134.812C227.974 134.812 228.169 134.458 228.169 134.426C228.169 133.784 227.066 134.33 227.066 132.98C227.066 132.627 227.196 132.595 227.682 132.273C227.844 132.145 228.039 131.984 228.201 131.856V131.695C228.007 131.727 227.715 131.695 227.618 131.695C227.455 131.695 227.293 131.759 227.228 131.888C227.164 131.952 227.131 132.113 227.066 132.209C226.904 132.466 226.58 132.595 226.353 132.723C226.061 132.884 225.964 132.852 225.964 133.109C225.964 133.784 226.548 133.719 226.548 134.041C226.548 134.105 226.45 134.137 226.418 134.201C226.385 134.201 226.418 134.298 226.353 134.362C226.223 134.49 225.964 134.523 225.834 134.683C225.737 134.748 225.802 134.973 225.802 135.101C225.769 135.23 225.737 135.519 225.575 135.712C225.445 135.744 225.251 135.712 225.153 135.776C225.024 135.84 224.959 135.936 224.862 135.969C224.635 136.033 224.213 136.129 224.148 136.129C223.954 136.129 223.921 136.033 223.921 135.904C223.921 135.679 224.408 135.679 224.408 135.422C224.408 135.197 223.63 134.426 223.5 134.426C223.241 134.426 223.079 134.876 222.527 134.876C222.333 134.876 222.138 134.78 222.041 134.619C221.944 134.458 221.976 134.266 221.911 134.137C221.814 133.912 221.782 133.623 221.782 133.398C221.782 132.884 221.944 133.045 222.495 132.755C222.916 132.498 223.403 132.273 223.857 131.92C223.921 131.856 223.986 131.695 224.084 131.631C224.473 131.213 224.894 130.795 225.348 130.41C225.575 130.185 225.867 129.96 226.159 129.767C226.223 129.703 226.385 129.735 226.483 129.735C226.645 129.703 226.839 129.671 227.002 129.638C227.131 129.606 227.326 129.414 227.423 129.414H228.623C229.012 129.446 229.401 129.446 229.79 129.574C230.146 129.671 230.503 129.928 230.86 130.024C231.184 130.12 231.605 130.153 231.962 130.249C232.189 130.313 232.416 130.474 232.708 130.538C232.967 130.635 233.486 130.763 233.583 130.763C233.713 130.763 234.037 130.345 234.426 130.345C234.621 130.345 234.783 130.635 235.139 130.635C235.237 130.635 235.788 130.538 236.08 130.442C236.306 130.345 236.533 130.185 236.76 130.185C236.825 130.185 237.344 130.281 237.409 130.281C237.506 130.281 238.057 130.217 238.381 130.12C238.576 130.056 238.868 129.831 238.965 129.831H239.776C240.035 129.735 240.165 129.478 240.327 129.317C240.359 129.253 240.489 129.221 240.521 129.189C240.554 129.092 240.521 128.964 240.521 128.867C240.716 128.578 240.975 128.642 241.202 128.642C241.559 128.642 241.915 128.932 242.142 128.932C242.369 128.932 242.661 128.803 242.823 128.803C243.083 128.803 243.342 128.771 243.601 128.642C243.699 128.61 243.731 128.417 243.861 128.385C244.12 128.321 244.477 128.321 244.801 128.192C244.931 128.16 245.028 128 245.19 127.935C245.287 127.871 245.482 127.871 245.611 127.807C245.709 127.775 245.806 127.646 245.936 127.646C246.487 127.518 247.103 127.486 247.686 127.389C247.881 127.357 248.043 127.196 248.27 127.1C248.465 126.971 248.854 127.004 248.951 127.004C249.113 127.004 250.41 127.293 250.54 127.325Z" fill="#E7EFF5"/>
<path d="M214.689 126C215.163 126.088 215.479 126.117 215.954 126.264C216.523 126.469 217.219 126.352 217.914 126.44C217.914 126.469 217.946 126.469 217.946 126.527C217.946 126.733 216.871 126.85 216.744 126.908C216.554 126.967 216.428 127.055 216.27 127.114C216.143 127.172 215.827 127.201 215.764 127.436C215.701 127.553 215.764 127.729 215.701 127.875C215.669 127.934 215.574 127.993 215.543 128.081C215.479 128.198 215.416 128.374 215.321 128.52C215.29 128.579 215.163 128.608 215.132 128.696C215.1 128.725 215.1 128.813 215.037 128.842C214.847 128.96 214.626 129.077 214.404 129.165C214.373 129.194 214.309 129.194 214.278 129.194C214.183 129.282 214.088 129.37 214.088 129.429C214.088 129.516 214.151 129.751 214.151 129.839C214.151 129.985 214.215 130.132 213.93 130.308C213.74 130.425 213.519 130.396 213.361 130.454C213.013 130.571 212.634 130.777 212.317 130.835C211.906 130.923 211.369 131.011 210.926 131.04C210.673 131.04 210.294 131.392 210.041 131.538C209.788 131.656 209.503 131.744 209.25 131.802C209.06 131.861 208.807 131.802 208.649 131.861C208.396 131.919 208.207 131.919 208.017 131.978C207.764 132.066 207.574 132.418 207.448 132.623C207.353 132.769 207.132 132.857 207.005 132.974C206.942 133.004 206.879 133.092 206.847 133.18C206.752 133.326 206.151 134 205.962 134C205.487 134 205.582 133.56 205.139 133.56C205.045 133.56 204.886 133.648 204.792 133.648C204.57 133.648 204.507 133.326 204.444 133.238C204.317 133.062 204.222 132.886 204.191 132.711C204.096 132.359 204.096 131.685 204.096 131.597C204.096 131.363 204.191 130.982 204.539 130.806C204.728 130.689 204.918 130.659 205.108 130.63C205.139 130.63 205.234 130.601 205.234 130.542C205.234 130.454 204.76 129.897 204.76 129.663C204.76 129.575 204.918 129.282 204.95 129.077C204.95 129.048 204.95 129.048 204.95 128.96C204.95 128.169 203.811 128.198 203.464 128.198C203.4 128.198 202.863 128.256 202.8 128.256C202.673 128.256 202.262 128.139 202.199 128.081C202.072 128.022 202.041 127.934 201.946 127.875V127.407C202.294 127.348 202.641 127.231 203.053 127.231C203.4 127.201 203.717 127.201 204.001 127.055C204.096 126.996 203.906 126.908 204.222 126.85C204.697 126.762 205.266 126.674 205.804 126.557C205.962 126.527 206.183 126.41 206.373 126.41C207.669 126.352 207.195 126.293 207.637 126.293C208.143 126.293 208.681 126.322 209.724 126.264C210.104 126.234 210.831 126.059 210.926 126.059H212.033C212.286 126.117 212.602 126.029 212.887 126H214.689Z" fill="#E7EFF5"/>
<path d="M409.951 0H628.697C635.462 0 640.946 5.48391 640.946 12.2486V380H162.946L409.951 0Z" fill="white" fill-opacity="0.5"/>
</svg>
