<svg width="274" height="313" viewBox="0 0 274 313" fill="none" xmlns="http://www.w3.org/2000/svg">
<path d="M56.4801 9.99999C56.4801 4.47715 60.9573 0 66.4801 0H263.48C269.003 0 273.48 4.47715 273.48 10V312H56.4801V9.99999Z" fill="#011447"/>
<path d="M69.4801 32.0823C69.4801 30.9323 70.4124 30 71.5624 30H258.398C259.548 30 260.48 30.9323 260.48 32.0823V72H69.4801V32.0823Z" fill="#064685"/>
<rect x="69.4801" y="72" width="191" height="240" fill="#064685"/>
<rect x="84.4801" y="232" width="84" height="4" rx="2" fill="#064685"/>
<rect x="84.4801" y="245" width="73" height="4" rx="2" fill="#064685"/>
<rect x="84.4801" y="258" width="58" height="4" rx="2" fill="#064685"/>
<rect x="84.4801" y="271" width="66" height="4" rx="2" fill="#064685"/>
<rect x="84.4801" y="284" width="73" height="4" rx="2" fill="#064685"/>
<rect x="84.4801" y="297" width="80" height="4" rx="2" fill="#064685"/>
<rect x="231.48" y="232" width="14" height="4" rx="2" fill="#064685"/>
<rect x="231.48" y="245" width="14" height="4" rx="2" fill="#064685"/>
<rect x="231.48" y="258" width="14" height="4" rx="2" fill="#064685"/>
<rect x="231.48" y="271" width="14" height="4" rx="2" fill="#064685"/>
<rect x="211.48" y="232" width="14" height="4" rx="2" fill="#064685"/>
<rect x="211.48" y="245" width="14" height="4" rx="2" fill="#064685"/>
<rect x="211.48" y="258" width="14" height="4" rx="2" fill="#064685"/>
<rect x="211.48" y="271" width="14" height="4" rx="2" fill="#064685"/>
<rect x="191.48" y="232" width="14" height="4" rx="2" fill="#064685"/>
<rect x="191.48" y="245" width="14" height="4" rx="2" fill="#064685"/>
<rect x="191.48" y="258" width="14" height="4" rx="2" fill="#064685"/>
<rect x="191.48" y="271" width="14" height="4" rx="2" fill="#064685"/>
<rect x="231.48" y="284" width="14" height="4" rx="2" fill="#064685"/>
<rect x="211.48" y="284" width="14" height="4" rx="2" fill="#064685"/>
<rect x="191.48" y="284" width="14" height="4" rx="2" fill="#064685"/>
<rect x="231.48" y="297" width="14" height="4" rx="2" fill="#064685"/>
<rect x="211.48" y="297" width="14" height="4" rx="2" fill="#064685"/>
<rect x="191.48" y="297" width="14" height="4" rx="2" fill="#064685"/>
<path d="M76.4808 96.6313V65.9147C76.4808 63.2003 78.6825 61 81.3987 61H247.381C250.097 61 252.299 63.2003 252.299 65.9147V96.6313" fill="white"/>
<path d="M252.298 96.6313V154.379C252.298 157.093 250.097 159.293 247.38 159.293H81.398C78.6818 159.293 76.4801 157.093 76.4801 154.379V96.6313" fill="#F5F8FB"/>
<path d="M115.824 77.5148C115.824 76.4102 116.72 75.5148 117.824 75.5148H201.119C202.223 75.5148 203.119 76.4102 203.119 77.5148C203.119 78.6193 202.223 79.5148 201.119 79.5148H117.824C116.72 79.5148 115.824 78.6193 115.824 77.5148Z" fill="#AEC4DB"/>
<path d="M88.7751 114.374C88.7751 113.27 89.6706 112.374 90.7751 112.374H217.102C218.206 112.374 219.102 113.27 219.102 114.374C219.102 115.479 218.206 116.374 217.102 116.374H90.7751C89.6706 116.374 88.7751 115.479 88.7751 114.374Z" fill="#AEC4DB"/>
<path d="M88.7752 129.119C88.7752 128.014 89.6706 127.119 90.7752 127.119H235.544C236.649 127.119 237.544 128.014 237.544 129.119C237.544 130.223 236.649 131.119 235.544 131.119H90.7752C89.6706 131.119 88.7752 130.223 88.7752 129.119Z" fill="#AEC4DB"/>
<path d="M88.7752 143.863C88.7752 142.758 89.6706 141.863 90.7751 141.863H213.414C214.518 141.863 215.414 142.758 215.414 143.863C215.414 144.967 214.518 145.863 213.414 145.863H90.7751C89.6706 145.863 88.7752 144.967 88.7752 143.863Z" fill="#AEC4DB"/>
<path d="M95.4309 83.2522C93.5851 83.2433 92.0918 81.7152 92.0918 79.8313C92.0918 79.431 92.159 79.0468 92.283 78.6897L92.2533 78.6818C92.1277 79.0412 92.0593 79.428 92.0593 79.8313C92.0593 81.7207 93.5616 83.2522 95.4148 83.2522H95.4309ZM99.5444 88.015C102.01 86.714 103.807 84.2744 104.267 81.3772L98.7555 80.4033C98.5767 81.4877 97.8969 82.3991 96.9674 82.8817L99.5444 88.015Z" fill="#76C349"/>
<path d="M85.0867 79.9022C85.0867 85.7486 89.7262 90.4877 95.4497 90.4877C97.1706 90.4877 98.7938 90.0593 100.222 89.3009L96.9929 82.868C96.53 83.1135 96.0045 83.2521 95.4469 83.2521C93.5937 83.2521 92.0915 81.7206 92.0915 79.8312C92.0915 77.9464 93.5863 76.4177 95.4336 76.4105V69.3165C89.7174 69.3256 85.0867 74.0614 85.0867 79.9022Z" fill="#0078D3"/>
<path d="M106.538 81.7988C106.638 81.1819 106.69 80.5482 106.69 79.9021C106.69 78.5443 106.459 77.2415 106.036 76.0324L98.6074 78.6795C98.7338 79.0394 98.8026 79.4272 98.8026 79.8312C98.8026 80.0288 98.786 80.2226 98.7544 80.4112L106.538 81.7988Z" fill="#D6E142"/>
<path d="M107.218 75.6143C105.493 70.6769 100.876 67.1429 95.4498 67.1429H95.4337V76.4105H95.4469C96.9063 76.4105 98.1481 77.3605 98.6096 78.6872L107.218 75.6143Z" fill="#12BDEF"/>
<path d="M76.4805 210.897V180.181C76.4805 177.466 78.6822 175.266 81.3985 175.266H247.381C250.097 175.266 252.299 177.466 252.299 180.181V210.897" fill="white"/>
<path d="M252.298 210.897V255.129C252.298 257.844 250.097 260.044 247.381 260.044H81.3982C78.682 260.044 76.4803 257.844 76.4803 255.129V210.897" fill="#F5F8FB"/>
<path d="M115.824 191.781C115.824 190.676 116.72 189.781 117.824 189.781H201.119C202.223 189.781 203.119 190.676 203.119 191.781C203.119 192.885 202.223 193.781 201.119 193.781H117.824C116.72 193.781 115.824 192.885 115.824 191.781Z" fill="#AEC4DB"/>
<path d="M88.7752 228.641C88.7752 227.536 89.6706 226.641 90.7752 226.641H217.102C218.206 226.641 219.102 227.536 219.102 228.641C219.102 229.745 218.207 230.641 217.102 230.641H90.7752C89.6706 230.641 88.7752 229.745 88.7752 228.641Z" fill="#AEC4DB"/>
<path d="M88.7752 243.385C88.7752 242.28 89.6706 241.385 90.7751 241.385H235.544C236.649 241.385 237.544 242.28 237.544 243.385C237.544 244.489 236.649 245.385 235.544 245.385H90.7752C89.6706 245.385 88.7752 244.489 88.7752 243.385Z" fill="#AEC4DB"/>
<path d="M95.4305 197.518C93.5846 197.509 92.0914 195.981 92.0914 194.098C92.0914 193.697 92.1586 193.313 92.2826 192.956L92.2529 192.948C92.1272 193.307 92.0588 193.694 92.0588 194.098C92.0588 195.987 93.5611 197.518 95.4143 197.518H95.4305ZM99.544 202.281C102.01 200.98 103.806 198.541 104.267 195.643L98.7551 194.669C98.5763 195.754 97.8964 196.665 96.967 197.148L99.544 202.281Z" fill="#76C349"/>
<path d="M85.0869 194.168C85.0869 200.015 89.7264 204.754 95.4499 204.754C97.1708 204.754 98.794 204.325 100.222 203.567L96.993 197.134C96.5302 197.38 96.0047 197.518 95.447 197.518C93.5938 197.518 92.0917 195.987 92.0917 194.097C92.0917 192.213 93.5865 190.684 95.4338 190.677V183.583C89.7176 183.592 85.0869 188.328 85.0869 194.168Z" fill="#0078D3"/>
<path d="M106.538 196.065C106.638 195.448 106.69 194.814 106.69 194.168C106.69 192.811 106.459 191.508 106.036 190.299L98.6075 192.946C98.7339 193.305 98.8028 193.693 98.8028 194.097C98.8028 194.295 98.7862 194.489 98.7545 194.677L106.538 196.065Z" fill="#D6E142"/>
<path d="M107.218 189.881C105.494 184.943 100.876 181.409 95.45 181.409H95.4338V190.677H95.4471C96.9065 190.677 98.1483 191.627 98.6098 192.953L107.218 189.881Z" fill="#12BDEF"/>
<path fill-rule="evenodd" clip-rule="evenodd" d="M56.4801 296.75V312H273.48V10C273.48 4.47715 269.003 0 263.48 0H248.767L56.4801 296.75Z" fill="white" fill-opacity="0.5"/>
<path d="M12.6527 63.8055C13.4605 64.6105 14.3988 65 15.4928 65C16.6137 65 17.5381 64.5978 18.3076 63.8055C19.0759 63.0133 19.4801 62.0906 19.4801 61H11.4801C11.4801 62.0906 11.871 63.0256 12.6527 63.8055Z" fill="#064685"/>
<path d="M27.3491 57.7759C26.4114 56.2735 25.7067 54.6612 25.2281 52.9653C24.7508 51.2737 24.3256 48.8234 23.9449 45.6212C23.7234 43.7567 23.0213 42.1835 22.2427 41.1665C21.8559 40.6605 21.4148 40.203 20.9072 39.8C19.9091 39.0075 19.1004 38.6328 18.1576 38.3341C18.0268 37.6652 17.7101 37.1134 17.202 36.669C16.7018 36.2311 16.1284 36 15.4734 36C14.8319 36 14.256 36.2276 13.7584 36.669C13.2606 37.1101 12.9466 37.6652 12.8158 38.3341C11.8729 38.6328 11.0596 39.0009 10.0528 39.8C9.55414 40.1962 9.10991 40.6535 8.71743 41.1665C7.94457 42.1766 7.25008 43.7567 7.02836 45.6212C6.64791 48.8234 6.21083 51.2694 5.73227 52.9653C5.25484 54.6568 4.55625 56.2691 3.62433 57.7759C3.53497 57.9204 3.4801 58.0607 3.4801 58.2173C3.4801 58.3453 3.50505 58.4602 3.5717 58.5875C3.71448 58.8588 3.92545 59 4.21334 59H26.76C27.048 59 27.2574 58.8577 27.4017 58.5875C27.4537 58.4593 27.4801 58.3311 27.4801 58.2031C27.4801 58.0463 27.4329 57.9102 27.3491 57.7759Z" fill="white" stroke="#064685" stroke-width="2"/>
<circle cx="24.9801" cy="46.5" r="8.5" fill="#D90000"/>
<path d="M29.028 51H22.0416V49.5303L24.5504 46.9941C25.2933 46.2331 25.7786 45.7067 26.0065 45.415C26.2343 45.1188 26.3984 44.8454 26.4987 44.5947C26.5989 44.3441 26.649 44.0843 26.649 43.8154C26.649 43.4144 26.5374 43.1159 26.3141 42.9199C26.0953 42.724 25.8014 42.626 25.4323 42.626C25.0449 42.626 24.6689 42.7148 24.3043 42.8926C23.9397 43.0703 23.5592 43.3232 23.1627 43.6514L22.0143 42.291C22.5065 41.8717 22.9143 41.5755 23.2379 41.4023C23.5615 41.2292 23.9147 41.097 24.2975 41.0059C24.6803 40.9102 25.1087 40.8623 25.5826 40.8623C26.207 40.8623 26.7584 40.9762 27.2369 41.2041C27.7155 41.432 28.0869 41.751 28.3512 42.1611C28.6155 42.5713 28.7477 43.0407 28.7477 43.5693C28.7477 44.0296 28.6656 44.4626 28.5016 44.8682C28.3421 45.2692 28.0914 45.6816 27.7496 46.1055C27.4124 46.5293 26.8154 47.1331 25.9586 47.917L24.6735 49.127V49.2227H29.028V51Z" fill="white"/>
<path d="M47.3181 287C49.277 287.829 51.0276 289.076 52.4453 290.654L53.2855 291.59C53.5317 291.864 53.5457 292.273 53.3194 292.563C52.4717 293.646 40.5353 304.266 38.2444 307.033C35.9543 309.8 32.006 312.121 30.4801 310.421C37.9817 298.344 39.4836 293.984 39.4836 293.984L47.3181 287Z" fill="#041329"/>
<path d="M5.4801 257.152L39.2695 295.457C39.2695 295.457 42.5873 296.337 46.6273 293.379C50.6673 290.421 51.4801 287.586 51.4801 287.586L25.4175 252.568L18.2251 245.579L5.4801 257.152Z" fill="#062148"/>
<path d="M14.4801 246.694C14.4801 246.694 51.0233 282.597 46.7258 294C50.6838 291.029 51.4801 288.182 51.4801 288.182L25.9468 253.019L18.9005 246L14.4801 246.694Z" fill="#041329"/>
<path d="M38.829 100.141C37.6319 100.602 35.3229 100.254 34.2703 99.5161C32.2164 98.0748 27.0006 99.6894 25.1075 103.896C24.5341 105.171 24.3887 106.701 24.5308 108.261C24.85 111.772 26.6441 114.965 29.2568 117.313C36.2755 123.62 36.0051 131.841 40.8886 131.995C48.9291 132.247 56.1281 123.096 55.4337 113.556C55.5539 100.153 44.1405 98.0952 38.829 100.141Z" fill="#5E443F"/>
<path d="M51.7569 122L40.6711 127.103L40.3758 131.779C40.2125 134.361 39.6876 135.504 37.3711 136.637C37.3711 136.637 26.1713 144.471 32.3282 148.723C41.0164 154.723 55.4801 137.629 55.4801 137.629C51.8923 129.874 51.7569 122 51.7569 122Z" fill="#FAB27F"/>
<path d="M21.3354 154.047L15.6405 180.393L11.8212 195.375L10.4801 199.542L10.7891 204L14.8415 198.866C14.8415 198.866 24.8858 167.258 24.9618 166.423C25.0378 165.589 27.4801 153 27.4801 153L21.3354 154.047Z" fill="#F3A772"/>
<path d="M16.753 193L14.8825 198.967L10.952 204.132L11.7138 209.037L3.87427 231.957C2.29444 236.576 1.18741 241.34 0.570553 246.176C0.113498 249.753 1.406 253.332 4.05312 255.824L5.65944 257.335L16.536 258L17.6273 248.194L40.4801 199.56L16.753 193Z" fill="#062148"/>
<path d="M26.2572 210.052L15.7418 243.392C15.16 245.236 15.5624 247.247 16.8088 248.728L17.8783 250L40.4801 200L26.2572 210.052Z" fill="#041329"/>
<path d="M19.5338 297.531C20.068 300.576 12.6449 306.805 6.02017 310.438C4.15826 311.459 4.19752 311.688 5.01885 312.238C5.82874 312.779 8.7705 313.369 12.932 312.705C19.1509 311.712 19.7514 309.969 26.3793 307.352C28.8924 306.359 25.5187 300.257 27.2653 298.131C29.0119 296.003 19.5338 297.531 19.5338 297.531Z" fill="#041329"/>
<path d="M20.522 195L19.8579 205.924C19.7288 208.048 20.5861 210.114 22.1857 211.536C23.1449 212.388 23.7195 213.586 23.7795 214.86L22.6731 253.3C22.6731 253.3 17.0221 297.771 15.4801 302.159C18.2887 304.975 26.7377 303.722 26.7377 303.722L33.2041 282.136C34.862 276.287 37.0196 269.829 37.1084 263.755L37.2087 256.939L42.8104 237.152C44.0639 232.852 45.5828 227.869 46.0292 223.416L46.5454 218.265C46.6407 217.311 46.9235 216.384 47.3788 215.536C48.7638 212.954 49.5981 210.119 49.8299 207.205L50.4801 199.041L20.522 195Z" fill="#062148"/>
<path d="M34.8869 256.403C41.2076 235.278 41.5015 215.108 41.5015 215.108C41.5015 215.108 29.2454 212.872 30.7002 201.35L50.2986 199L50.4801 199.025L49.8511 207.212C49.6257 210.135 48.8175 212.978 47.4758 215.566C47.0347 216.417 46.7608 217.347 46.6684 218.304L46.1683 223.469C45.736 227.934 44.2645 232.932 43.051 237.243L37.6237 257.086L37.5265 263.92C37.4405 270.011 35.3503 276.487 33.7443 282.353L27.4801 300C27.4801 300 36.7223 275.378 34.8869 256.403Z" fill="#041329"/>
<path d="M42.4801 202.911C42.164 206.607 41.9843 212 41.9843 212C41.9843 212 34.3629 211.452 33.5305 204.558C32.6972 197.664 42.4801 202.911 42.4801 202.911Z" fill="#062148"/>
<path d="M55.625 137.994C55.625 137.994 44.151 146.593 38.1818 145.32C35.3797 144.723 34.9921 138.953 37.7974 137C37.451 137.128 26.2209 140.405 24.8069 143.092C23.2541 146.043 21.6503 151.192 21.6229 154.423C22.0702 154.349 23.5084 155.718 23.5084 155.718C22.6961 158.897 21.6624 174.627 21.1561 176.87C19.0509 186.201 15.5181 198.252 15.4801 199.648C16.6187 201.43 27.8844 211.748 49.8617 210.957C50.2526 210.943 50.5941 210.645 50.6676 210.255C52.4062 201.067 52.5483 193.741 54.2837 187.546C56.4212 179.915 60.0703 174.387 60.0703 174.387L62.845 169.357C67.2378 159.972 67.0545 155.857 65.3975 149.161C63.7397 142.465 55.625 137.994 55.625 137.994Z" fill="#064685"/>
<path d="M37.9747 136C37.7701 135.925 37.6003 135.822 37.4801 135.683L37.4832 135.681C37.6602 135.61 37.8382 135.491 38.0151 135.343C38.188 135.215 38.3425 135.103 38.4801 135V135.646C38.3328 135.767 38.165 135.884 37.9747 136Z" fill="#178EA6"/>
<path d="M38.4801 136V135.053C39.8352 134.249 40.3276 133.789 40.4801 132C40.3239 133.952 39.9034 135.07 38.4801 136Z" fill="#EAE3DF"/>
<path d="M39.3913 137C38.6715 137 38.0067 136.931 37.4801 136.761C37.7996 136.589 38.0814 136.415 38.3288 136.234C39.6198 135.291 40.0012 134.157 40.1429 132.176C40.1472 132.125 40.1507 132.074 40.1541 132.022L40.4633 127.231L50.2145 124C50.2239 124.076 52.2382 132.981 45.0245 136.012C44.0951 136.402 41.507 137 39.3913 137Z" fill="#F9AB77"/>
<path d="M48.152 118.843C47.027 112.869 44.3226 114.902 42.7489 112.835C39.1127 108.059 35.3595 113.854 29.4806 116.138C29.4438 116.599 31.3 125.144 31.7659 126.385C34.8878 134.693 34.4826 135.862 40.2615 134.537C46.0985 133.198 50.023 129.749 51.0792 125.835C51.3518 124.825 52.4801 120.332 52.4801 120.332C51.3977 120.418 48.5762 121.093 48.152 118.843Z" fill="#FAB27F"/>
<path d="M47.9616 118.812C47.9616 118.812 49.1417 123.518 46.5289 126.762C43.916 130.006 40.4942 128.351 38.3352 127.526C36.1745 126.702 32.4801 127.778 32.4801 127.778C32.4801 127.778 33.7196 135.381 35.6381 136.684C37.5559 137.987 43.5368 134.975 46.4471 132.863C49.3582 130.751 51.3481 125.164 50.1014 120.625C48.8555 116.086 47.9616 118.812 47.9616 118.812Z" fill="#5E443F"/>
<path d="M33.0214 130.691L36.8684 130.018C37.3548 129.933 37.8421 130.157 37.956 130.519C38.07 130.881 37.7685 131.243 37.2821 131.328L33.4351 132H33.4198C33.2547 131.555 33.1084 131.116 32.9801 130.705L33.0214 130.691Z" fill="#FAB27F"/>
<path d="M50.7858 115.518C50.1719 116.049 50.5443 122.966 51.3545 122.999C53.3605 123.079 54.2486 119.772 54.4605 117.607C54.7441 114.726 51.8749 114.575 50.7858 115.518Z" fill="#FAB27F"/>
<path d="M40.569 175.75L48.2962 162C51.3945 164.989 59.6177 168.414 62.4801 168.557C62.4801 168.557 46.7446 187.88 43.8562 186.969C40.9679 186.056 39.0831 187.15 34.6456 186.056C30.2081 184.962 17.4801 176.353 17.4801 176.353L19.0576 170.488L40.569 175.75Z" fill="#FAB27F"/>
<path d="M4.50516 154.068L19.0463 160.692C19.4214 160.863 19.5841 161.3 19.4108 161.669L17.3775 166L1.4801 158.758L3.51335 154.427C3.68665 154.059 4.13089 153.897 4.50516 154.068Z" fill="#3C3C3B"/>
<path d="M3.8545 155.311C3.97536 155.042 4.28521 154.926 4.54721 155.05L17.1767 161.039C17.4387 161.163 17.5531 161.481 17.4314 161.75L16.1068 164.689C15.9852 164.957 15.6753 165.075 15.4133 164.951L2.78379 158.961C2.52179 158.837 2.40742 158.518 2.52828 158.25L3.8545 155.311Z" fill="white"/>
<path d="M0.847003 159.253C0.959916 159.035 1.24941 158.939 1.49307 159.04L17.1981 165.545C17.4417 165.646 17.5479 165.905 17.4349 166.123L17.114 166.747C17.0003 166.966 16.7108 167.061 16.4671 166.96L0.762956 160.455C0.518454 160.354 0.412335 160.095 0.525247 159.877L0.847003 159.253Z" fill="#BDBEC0"/>
<path d="M2.94005 160.023L4.29222 160.514C4.45468 160.573 4.52549 160.724 4.44968 160.852C4.37469 160.979 4.18224 161.035 4.01978 160.977L2.66844 160.486C2.50515 160.427 2.43517 160.276 2.51015 160.147C2.58514 160.02 2.77759 159.965 2.94005 160.023Z" fill="white"/>
<path d="M5.95646 161.028L9.2856 162.421C9.45378 162.491 9.52709 162.672 9.44861 162.824C9.37098 162.976 9.17175 163.042 9.00357 162.972L5.67443 161.579C5.50711 161.509 5.4338 161.329 5.51056 161.176C5.58905 161.024 5.78828 160.958 5.95646 161.028Z" fill="white"/>
<path d="M5.00787 161.89L13.4561 165.821C14.1451 166.138 14.9619 165.908 15.385 165.28C15.6636 164.866 15.7255 164.342 15.5485 163.875L14.7674 161.809C14.5142 160.184 14.9063 159.158 16.1176 159L19.3729 165.324L19.4801 172.961L19.2832 177L14.4761 175.412C11.17 174.256 8.54337 171.508 8.54337 171.508C7.18759 170.835 7.50352 169.014 7.50352 169.014C7.67656 168.765 7.08123 167.81 7.03836 167.51L6.93199 166.778C6.86849 166.341 7.05027 165.905 7.40509 165.641C7.40509 165.641 4.77926 164.163 4.69592 163.713C4.06883 162.446 5.00787 161.89 5.00787 161.89Z" fill="#FAB27F"/>
</svg>
